<?xml version="1.0" encoding="UTF-8" standalone="no"?>
<svg
   xmlns:dc="http://purl.org/dc/elements/1.1/"
   xmlns:cc="http://creativecommons.org/ns#"
   xmlns:rdf="http://www.w3.org/1999/02/22-rdf-syntax-ns#"
   xmlns:svg="http://www.w3.org/2000/svg"
   xmlns="http://www.w3.org/2000/svg"
   xmlns:sodipodi="http://sodipodi.sourceforge.net/DTD/sodipodi-0.dtd"
   xmlns:inkscape="http://www.inkscape.org/namespaces/inkscape"
   width="64"
   height="64"
   viewBox="0 0 16.933333 16.933334"
   version="1.1"
   id="svg2466"
   inkscape:version="1.0.2 (e86c870879, 2021-01-15)"
   sodipodi:docname="background.svg">
  <defs
     id="defs2460" />
  <sodipodi:namedview
     id="base"
     pagecolor="#ffffff"
     bordercolor="#666666"
     borderopacity="1.0"
     inkscape:pageopacity="0.0"
     inkscape:pageshadow="2"
     inkscape:zoom="7.9195959"
     inkscape:cx="11.013002"
     inkscape:cy="37.947495"
     inkscape:document-units="mm"
     inkscape:current-layer="layer1"
     inkscape:document-rotation="0"
     showgrid="false"
     units="px"
     inkscape:window-width="2560"
     inkscape:window-height="1403"
     inkscape:window-x="1080"
     inkscape:window-y="104"
     inkscape:window-maximized="1" />
  <metadata
     id="metadata2463">
    <rdf:RDF>
      <cc:Work
         rdf:about="">
        <dc:format>image/svg+xml</dc:format>
        <dc:type
           rdf:resource="http://purl.org/dc/dcmitype/StillImage" />
        <dc:title></dc:title>
      </cc:Work>
    </rdf:RDF>
  </metadata>
  <g
     inkscape:label="Layer 1"
     inkscape:groupmode="layer"
     id="layer1">
    <g
       id="g2400"
       transform="matrix(2,0,0,2,-219.95924,-152.7136)">
      <path
         style="fill:#000000;fill-opacity:1;stroke:none;stroke-width:1;stroke-opacity:0.417309"
         id="path3664"
         d="m 110.88273,77.84749 c 0.1578,0.0204 0.3155,0.0417 0.4737,0.0586 0.1435,0.0143 0.2877,0.018 0.4317,0.0228 0.1395,0.005 0.279,0.009 0.4184,0.0156 0.2003,0.0111 0.4009,0.0148 0.6014,0.0188 0.2299,0.004 0.4598,0.006 0.6897,0.008 0.1518,0 0.3036,0.003 0.4554,0.004 0.1408,0.005 0.2817,0.005 0.4225,0.003 0.1381,-0.004 0.2763,-0.007 0.4145,-0.007 0.1279,0 0.2554,0.0114 0.3824,0.0262 0.1005,0.0124 0.2002,0.0315 0.2978,0.0588 0.085,0.0217 0.1528,0.0724 0.2174,0.12959 0.07,0.0641 0.1301,0.13745 0.1758,0.22085 0.046,0.0978 0.072,0.20323 0.094,0.30882 0.024,0.12311 0.033,0.24826 0.039,0.3733 0.01,0.16148 0.01,0.32306 0.01,0.48464 0,0.17632 -0.01,0.35237 -0.024,0.52805 -0.012,0.15598 -0.037,0.31044 -0.059,0.46525 -0.021,0.14779 -0.035,0.29652 -0.043,0.44561 -0.01,0.12808 -0.01,0.2563 -0.01,0.38452 0.01,0.0745 -0.013,0.16052 0.034,0.22548 0.011,0.0153 0.021,0.039 0.04,0.0395 0.052,0.003 0.1012,-0.0228 0.1519,-0.0344 0,0 0.01,-0.004 0.01,-0.004 v 0 c 0.057,-0.0448 0.1209,-0.082 0.1708,-0.13454 0.056,-0.0595 0.035,-0.23693 0.035,-0.31578 0,-0.12729 0,-0.25466 0.01,-0.38182 0.01,-0.14766 0.022,-0.29498 0.044,-0.44137 0.022,-0.15555 0.046,-0.311 0.057,-0.46787 0.013,-0.17677 0.02,-0.3539 0.023,-0.53115 0,-0.16251 0,-0.32499 -0.01,-0.48739 -0.01,-0.12774 -0.015,-0.25553 -0.041,-0.38105 -0.023,-0.11031 -0.051,-0.21995 -0.1,-0.32221 -0.048,-0.0885 -0.111,-0.16632 -0.1849,-0.23498 -0.069,-0.0628 -0.1403,-0.12213 -0.2321,-0.14692 -0.1007,-0.0287 -0.2038,-0.0478 -0.3077,-0.0615 -0.1299,-0.0154 -0.2604,-0.0259 -0.3913,-0.0269 -0.1403,0 -0.2805,0.004 -0.4207,0.0101 -0.1435,0.006 -0.2871,0.008 -0.4308,0.007 -0.1548,0 -0.3097,0.003 -0.4646,0.003 -0.2356,0.003 -0.4712,0.005 -0.7069,0.005 -0.2102,0 -0.4205,-0.003 -0.6306,0.003 -0.1449,0 -0.2898,-0.004 -0.4347,-0.004 -0.1477,-1.6e-4 -0.2954,0 -0.4427,-0.0114 -0.1654,-0.0116 -0.3305,-0.027 -0.4956,-0.0422 0,0 -0.2678,0.1901 -0.2678,0.1901 z" />
      <path
         style="fill:#000000;fill-opacity:1;stroke:none;stroke-width:1;stroke-opacity:0.417309"
         id="path3666"
         d="m 111.47883,77.88667 c 0.066,0.22019 0.086,0.44678 0.096,0.67527 0.01,0.31613 -0.019,0.63183 -0.049,0.94615 -0.031,0.29234 -0.068,0.58417 -0.093,0.87712 -0.02,0.23974 -0.037,0.47972 -0.049,0.72004 -0.013,0.25019 -0.011,0.50048 0.01,0.75038 0.017,0.22228 0.058,0.44154 0.1234,0.65458 0.054,0.16825 0.1322,0.32705 0.2249,0.47705 0.065,0.10538 0.1449,0.19925 0.2402,0.27836 0.084,0.0657 0.1841,0.0994 0.2871,0.12248 0.1064,0.0209 0.2145,0.0257 0.322,0.013 0.054,-0.01 0.1067,-0.0249 0.1542,-0.0523 0.2723,-0.15664 0.3956,-0.19 0.5649,-0.36682 0.095,-0.1057 0.164,-0.22982 0.223,-0.35819 0.05,-0.11161 0.08,-0.22966 0.099,-0.34997 0.015,-0.10245 0.015,-0.20579 0.01,-0.30879 0,-0.0654 -0.015,-0.13007 -0.024,-0.19492 -0.01,-0.0441 -0.012,-0.0883 -0.02,-0.13227 0,-0.0201 -0.01,-0.0396 -0.014,-0.0589 0,-0.008 -0.012,-0.0243 0,-0.006 0.011,0.007 0,0.005 0.019,0.006 -0.1335,0.0779 -0.2679,0.15422 -0.4005,0.23357 -0.01,0.005 0.019,-0.008 0.028,-0.0108 0.029,-0.01 0.034,-0.0101 0.065,-0.0164 0.1057,-0.0153 0.2116,0.006 0.3154,0.0251 0.1165,0.0251 0.2336,0.0475 0.3516,0.064 0.1397,0.0177 0.2801,0.0285 0.4204,0.0389 0.1988,0.0175 0.3982,0.0167 0.5975,0.008 0.1738,-0.009 0.3471,-0.0257 0.5204,-0.0407 0.1568,-0.0145 0.3139,-0.0257 0.471,-0.0369 0.1854,-0.0151 0.3712,-0.0225 0.557,-0.0296 0.2472,-0.008 0.4925,-0.0415 0.7382,-0.0672 0.1167,2.7e-4 0.2886,-0.0457 0.4003,0.003 0.016,0.007 0.029,0.0183 0.043,0.0274 0.086,0.0817 0.127,0.19299 0.1541,0.30559 0.028,0.13446 0.01,0.27054 -0.017,0.40378 -0.019,0.13357 -0.084,0.24895 -0.1537,0.36164 -0.085,0.13766 -0.195,0.2531 -0.3241,0.34911 -0.099,0.0628 -0.4848,0.30766 0.267,-0.15237 0.027,-0.0161 -0.055,0.029 -0.084,0.042 -0.098,0.0449 -0.1984,0.0723 -0.3028,0.0982 -0.2397,0.0523 -0.485,0.0528 -0.7288,0.0405 -0.2704,-0.0217 -0.5403,-0.0503 -0.8096,-0.0832 -0.2325,-0.0288 -0.462,-0.0751 -0.691,-0.12367 -0.1933,-0.0464 -0.389,-0.0782 -0.5869,-0.0949 -0.1934,-0.0119 -0.3875,-0.0122 -0.581,-0.005 -0.1598,0.004 -0.3162,0.0347 -0.471,0.0722 -0.1046,0.0269 -0.2093,0.054 -0.3127,0.0855 -0.1373,0.0793 -0.049,0.0259 -0.2572,0.16926 0,0 -0.01,0.006 -0.01,0.006 v 0 c -0.1242,0.11322 -0.097,0.059 -0.1276,0.12899 0.1036,-0.0346 0.2091,-0.063 0.3147,-0.091 0.1529,-0.0396 0.3075,-0.0739 0.466,-0.0807 0.1924,-0.0106 0.3854,-0.0109 0.5779,0 0.1973,0.0143 0.3929,0.0421 0.5856,0.088 0.23,0.0494 0.4606,0.0978 0.6943,0.12647 0.2701,0.0337 0.5411,0.0599 0.812,0.0854 0.2455,0.0164 0.4924,0.0185 0.7352,-0.0278 0.081,-0.018 0.1367,-0.028 0.2155,-0.0536 0.043,-0.0138 0.1375,-0.0516 0.1775,-0.074 0.4573,-0.25652 0.3513,-0.18564 0.5705,-0.33835 0.1261,-0.10391 0.2348,-0.22482 0.3184,-0.36605 0.07,-0.11825 0.1291,-0.2404 0.1461,-0.37854 0.023,-0.13992 0.041,-0.28229 0.01,-0.42249 -0.032,-0.12372 -0.081,-0.24326 -0.1718,-0.3361 -0.017,-0.013 -0.033,-0.0285 -0.051,-0.0391 -0.1185,-0.0672 -0.2918,-0.0172 -0.419,-0.0161 -0.2444,0.0254 -0.4882,0.0596 -0.734,0.0684 -0.1853,0.006 -0.3706,0.0124 -0.5555,0.0262 -0.1573,0.0116 -0.3146,0.0222 -0.4717,0.0365 -0.174,0.0148 -0.3478,0.0333 -0.5221,0.0443 -0.1971,0.0101 -0.3946,0.0127 -0.5915,-0.005 -0.139,-0.0108 -0.278,-0.0217 -0.4165,-0.038 -0.1178,-0.0153 -0.2348,-0.0355 -0.3508,-0.0614 -0.1061,-0.0214 -0.2135,-0.0448 -0.3223,-0.041 -0.1965,0.0196 -0.5479,0.11983 -0.5619,0.29935 0,0.0111 0.01,0.0222 0.011,0.0334 0.01,0.0169 0.01,0.0346 0.012,0.0522 0.01,0.0433 0.014,0.0869 0.02,0.13042 0.01,0.0634 0.019,0.12678 0.023,0.19076 0.01,0.0994 0,0.1992 -0.012,0.29771 -0.021,0.11626 -0.053,0.23011 -0.1042,0.33729 -0.061,0.12414 -0.1313,0.24392 -0.23,0.34221 -0.1403,0.12888 -0.3663,0.23119 0.2764,-0.13131 0.012,-0.007 -0.039,0.0289 -0.096,0.0505 -0.015,0.006 -0.031,0.01 -0.047,0.0143 -0.1034,0.0206 -0.2078,0.019 -0.312,0.003 -0.097,-0.0177 -0.1923,-0.0444 -0.2737,-0.10316 -0.094,-0.0725 -0.1723,-0.16105 -0.237,-0.26112 -0.093,-0.14475 -0.1698,-0.29909 -0.2237,-0.46284 -0.064,-0.20936 -0.106,-0.42441 -0.1219,-0.64299 -0.017,-0.24746 -0.02,-0.49551 -0.01,-0.74332 0.011,-0.23791 0.026,-0.47566 0.039,-0.71347 0.021,-0.29102 0.053,-0.58095 0.083,-0.87122 0.027,-0.31435 0.05,-0.62992 0.034,-0.94565 -0.016,-0.22791 -0.049,-0.45471 -0.1335,-0.66842 0,0 -0.3504,0.19352 -0.3504,0.19352 z" />
      <path
         style="fill:#000000;fill-opacity:1;stroke:none;stroke-width:1;stroke-opacity:0.417309"
         id="path3750"
         d="m 111.28263,77.66884 c -0.091,0.0101 -0.1847,0.0167 -0.2737,0.0418 -0.028,0.008 -0.056,0.0185 -0.084,0.0279 -0.1872,0.0781 -0.3718,0.17671 -0.5099,0.32758 -0.058,0.0638 -0.072,0.0882 -0.1203,0.15907 -0.087,0.13742 -0.14,0.2826 -0.1666,0.4428 -0.01,0.03 -0.01,0.0604 -0.011,0.0906 -0.01,0.10165 -0.01,0.20495 0.02,0.30379 0.01,0.0183 0.013,0.0364 0.024,0.0519 0,0.003 0,0.005 0.01,0.007 0.013,0.0161 0.04,0.007 0.056,0.005 0.02,-0.003 0.04,-0.003 0.06,-0.004 0.2416,-0.003 0.4832,0.01 0.7248,0.0161 0.1577,0.005 0.3155,0.0124 0.4726,0.0287 0.023,0.003 0.046,0.006 0.068,0.009 0,0 0.01,0.003 0.01,0.003 0.019,-0.004 0.06,-0.0369 0.064,-0.0399 0,0 0.077,-0.0486 0.077,-0.0486 v 0 c 0.015,-0.0116 0.03,-0.0222 0.044,-0.0347 0,-0.003 0.01,-0.007 0.01,-0.0103 0,-0.003 -0.01,-0.003 -0.011,-0.003 -0.024,-0.004 -0.047,-0.007 -0.071,-0.009 -0.1593,-0.0148 -0.3192,-0.0217 -0.4791,-0.0259 -0.2405,-0.007 -0.4809,-0.0159 -0.7214,-0.0209 -0.012,0 -0.094,0 -0.102,0.008 -2e-4,1.9e-4 0,0.003 0,0.005 0,-0.003 0,-0.003 -0.01,-0.005 -0.011,-0.0119 -0.015,-0.0284 -0.021,-0.0429 -0.027,-0.0952 -0.029,-0.19505 -0.02,-0.29321 0,-0.0296 0.01,-0.0594 0.012,-0.0888 0.027,-0.15512 0.084,-0.30244 0.1703,-0.43439 0.019,-0.0267 0.037,-0.0543 0.057,-0.08 0.041,-0.0518 0.087,-0.10099 0.1373,-0.1434 0.025,-0.0212 0.1113,-0.0633 0.079,-0.0588 -0.043,0.006 -0.08,0.0354 -0.1128,0.0635 -0.023,0.0198 0.055,-0.0254 0.083,-0.0382 0.027,-0.01 0.054,-0.0209 0.082,-0.0292 0.087,-0.0262 0.1783,-0.0327 0.2679,-0.0421 0,0 0.1873,-0.13784 0.1873,-0.13784 z" />
      <path
         style="fill:#000000;fill-opacity:1;stroke:none;stroke-width:1;stroke-opacity:0.417309"
         id="path3752"
         d="m 111.12023,77.77719 c -0.1506,0.0551 -0.2883,0.14287 -0.3886,0.26738 -0.02,0.0249 -0.04,0.0499 -0.056,0.0771 -0.017,0.028 -0.029,0.0586 -0.044,0.0879 -0.028,0.14536 -0.014,0.0272 -0.01,0.16134 0,0.0246 0,0.049 0,0.0735 0,0 0,-0.003 0,-0.003 v 0 c 0.016,-0.0314 0.029,-0.064 0.047,-0.0942 0.045,-0.0763 0.1029,-0.14441 0.1465,-0.22156 0.043,-0.0656 0.068,-0.10888 0.118,-0.16772 0.019,-0.022 0.039,-0.0431 0.06,-0.0629 0.018,-0.0167 0.08,-0.0552 0.057,-0.0464 -0.051,0.0193 -0.095,0.0518 -0.1423,0.0791 -0.011,0.007 0.024,-0.0114 0.036,-0.0172 0,0 0.1744,-0.13449 0.1744,-0.13449 z" />
      <path
         style="fill:#000000;fill-opacity:1;stroke:none;stroke-width:1;stroke-opacity:0.417309"
         id="path3754"
         d="m 111.18993,77.94387 c -0.023,0.0421 -0.045,0.0795 -0.065,0.12409 -0.016,0.0338 -0.046,0.0657 -0.043,0.10277 0,0.0329 0.038,0.054 0.057,0.081 0,0 0,-0.003 0,-0.003 v 0 c 0.046,-0.0569 0.098,-0.11027 0.1394,-0.17084 0.022,-0.0316 0.032,-0.0698 0.05,-0.10403 0.035,-0.0697 0.036,-0.067 0.073,-0.12163 0,0 -0.2143,0.0906 -0.2143,0.0906 z" />
      <path
         style="fill:#000000;fill-opacity:1;stroke:none;stroke-width:1;stroke-opacity:0.417309"
         id="path3756"
         d="m 112.01933,77.92564 c 0.047,0.0914 0.079,0.19109 0.1017,0.29144 0.01,0.0412 0.014,0.0833 0.024,0.12436 0.01,0.0398 0.022,0.0787 0.034,0.11803 0.019,0.0308 0.038,0.0617 0.056,0.0926 0,0 0,-0.003 0,-0.003 v 0 c 0.02,-0.0512 0.041,-0.10239 0.061,-0.15362 0.01,-0.0485 0.016,-0.0967 0.016,-0.14552 0,-0.14965 -0.056,-0.2957 -0.1371,-0.41875 0,0 -0.1605,0.0936 -0.1605,0.0936 z" />
      <path
         style="fill:#000000;fill-opacity:1;stroke:none;stroke-width:1;stroke-opacity:0.417309"
         id="path3758"
         d="m 112.38013,77.90546 c 0.027,0.0912 0.062,0.17991 0.092,0.26995 0.012,0.0368 0.023,0.0743 0.037,0.11073 0.014,0.0374 0.03,0.0738 0.046,0.11065 0.072,0.13245 0.027,0.0744 0.1334,0.17526 0,0 0,-0.003 0,-0.003 v 0 c 0.047,-0.17846 0.038,-0.0899 0.031,-0.26527 -0.01,-0.0409 -0.014,-0.0824 -0.025,-0.12279 -0.01,-0.0376 -0.025,-0.0739 -0.038,-0.1107 -0.031,-0.089 -0.063,-0.17891 -0.1067,-0.26279 0,0 -0.1741,0.0972 -0.1741,0.0972 z" />
      <path
         style="fill:#000000;fill-opacity:1;stroke:none;stroke-width:1;stroke-opacity:0.417309"
         id="path3760"
         d="m 112.94903,77.90884 c 0.087,0.10465 0.1529,0.22368 0.201,0.351 0.016,0.0434 0.03,0.0878 0.045,0.13171 0.063,0.18407 0.016,0.0999 0.1403,0.25199 0,0 0,-0.003 0,-0.003 v 0 c 0.065,-0.24243 0.063,-0.12758 0.026,-0.34364 -0.014,-0.045 -0.026,-0.0908 -0.043,-0.13488 -0.043,-0.11171 -0.1101,-0.23495 -0.1984,-0.31779 -0.01,-0.01 -0.022,-0.0169 -0.033,-0.0254 0,0 -0.1426,0.0891 -0.1426,0.0891 z" />
      <path
         style="fill:#000000;fill-opacity:1;stroke:none;stroke-width:1;stroke-opacity:0.417309"
         id="path3762"
         d="m 113.65473,77.8359 c 0.1144,0.23688 0.1911,0.48956 0.2735,0.73871 0.024,0.0512 0.048,0.10232 0.071,0.15349 0,0 0,-0.003 0,-0.003 v 0 c 0.014,-0.0714 0.028,-0.14277 0.042,-0.21418 -0.01,-0.0662 -0.01,-0.13292 -0.017,-0.19854 -0.024,-0.15513 -0.082,-0.32782 -0.1663,-0.46196 -0.022,-0.0348 -0.051,-0.0622 -0.08,-0.0907 0,0 -0.1286,0.0754 -0.1286,0.0754 z" />
      <path
         style="fill:#000000;fill-opacity:1;stroke:none;stroke-width:1;stroke-opacity:0.417309"
         id="path3764"
         d="m 114.27253,77.83233 c 0.01,0.0156 0.014,0.0313 0.022,0.0469 0.011,0.0236 0.024,0.0463 0.033,0.0707 0.032,0.0882 0.054,0.18968 0.075,0.27991 0.014,0.0611 0.017,0.12536 0.04,0.18386 0.022,0.0557 0.061,0.10292 0.091,0.15438 0,0 0,-0.003 0,-0.003 v 0 c 0.024,-0.0805 0.064,-0.15798 0.073,-0.24164 0.01,-0.0646 -0.014,-0.1293 -0.026,-0.19299 -0.024,-0.11996 -0.064,-0.24154 -0.1367,-0.34157 -0.011,-0.0146 -0.024,-0.027 -0.036,-0.0406 0,0 -0.1393,0.0832 -0.1393,0.0832 z" />
      <path
         style="fill:#000000;fill-opacity:1;stroke:none;stroke-width:1;stroke-opacity:0.417309"
         id="path3766"
         d="m 114.92333,77.98621 c 0.018,0.0332 0.044,0.0769 0.058,0.11081 0.048,0.12022 0.075,0.2491 0.094,0.37679 0.01,0.0579 0.014,0.11628 0.021,0.17441 0.01,0.0886 0.02,0.26231 0.042,0.351 0.079,0.31964 0.032,-0.0386 0.063,0.2582 0,0 0,-0.003 0,-0.003 v 0 c 0.011,-0.0488 0.02,-0.0979 0.033,-0.14624 0.016,-0.0633 0.043,-0.12419 0.054,-0.18862 0.024,-0.1352 0.01,-0.23913 0,-0.37399 -0.02,-0.15544 -0.037,-0.30427 -0.088,-0.45341 -0.019,-0.0562 -0.045,-0.11589 -0.079,-0.16568 -0.01,-0.0154 -0.024,-0.0284 -0.035,-0.0426 0,0 -0.1638,0.10139 -0.1638,0.10139 z" />
      <path
         style="fill:#000000;fill-opacity:1;stroke:none;stroke-width:1;stroke-opacity:0.417309"
         id="path3768"
         d="m 115.38633,77.88598 c 0.032,0.0666 0.065,0.13433 0.087,0.20532 0.052,0.16917 0.08,0.34462 0.1103,0.5185 0.022,0.13076 0.038,0.26255 0.058,0.39357 0.01,0.0613 0.022,0.12216 0.031,0.18352 0.01,0.0575 0.015,0.11536 0.022,0.17303 0,0 0,-0.003 0,-0.003 v 0 c 0.017,-0.0701 0.037,-0.13938 0.051,-0.21016 0.014,-0.0716 0.026,-0.14372 0.031,-0.21638 0.012,-0.1643 0,-0.25402 -0.018,-0.41656 -0.041,-0.24825 -0.077,-0.50683 -0.2072,-0.72689 0,0 -0.1688,0.0981 -0.1688,0.0981 z" />
      <path
         style="fill:#000000;fill-opacity:1;stroke:none;stroke-width:1;stroke-opacity:0.417309"
         id="path3770"
         d="m 112.06433,81.77449 c 0,0.014 0,0.028 0,0.0421 -0.01,0.12436 0.01,0.26522 0.024,0.38778 0.01,0.046 0.016,0.0916 0.024,0.13734 0.03,0.13605 0.063,0.27408 0.1233,0.40069 0.035,0.0732 0.084,0.16158 0.1564,0.20674 0.04,0.0251 0.089,0.033 0.1336,0.0495 0.038,0.0138 0.075,0.0273 0.1131,0.041 0,0 0,-0.003 0,-0.003 v 0 c -0.019,-0.0251 -0.039,-0.0501 -0.058,-0.0751 -0.012,-0.0355 -0.02,-0.0721 -0.035,-0.10634 -0.033,-0.077 -0.084,-0.14581 -0.1192,-0.22198 -0.059,-0.12597 -0.093,-0.26128 -0.1213,-0.39664 -0.01,-0.0453 -0.018,-0.0903 -0.025,-0.13571 -0.021,-0.13829 -0.031,-0.27831 -0.033,-0.41814 0,0 -0.1833,0.0914 -0.1833,0.0914 z" />
      <path
         style="fill:#000000;fill-opacity:1;stroke:none;stroke-width:1;stroke-opacity:0.417309"
         id="path3772"
         d="m 112.62923,82.16813 c 0.029,0.15881 0.086,0.31242 0.155,0.4581 0.02,0.0435 0.044,0.0858 0.065,0.12875 0.1352,0.17671 0.034,0.0683 0.2148,0.20457 0.035,0.0262 0.068,0.0553 0.1015,0.0829 0,0 0,-0.003 0,-0.003 v 0 c -0.015,-0.0388 -0.033,-0.0763 -0.044,-0.11626 -0.085,-0.308 0.039,0.0167 -0.084,-0.27824 -0.056,-0.1139 -0.07,-0.13671 -0.1156,-0.2532 -0.042,-0.10727 -0.07,-0.2186 -0.1069,-0.32766 0,0 -0.1902,0.10345 -0.1902,0.10345 z" />
      <path
         style="fill:#000000;fill-opacity:1;stroke:none;stroke-width:1;stroke-opacity:0.417309"
         id="path3774"
         d="m 113.80973,82.47748 c -0.01,0.0167 -0.013,0.0337 -0.02,0.0503 -0.011,0.0246 -0.022,0.0493 -0.034,0.0735 -0.029,0.0606 -0.072,0.12967 -0.085,0.19725 -0.01,0.0294 0,0.0598 0,0.0897 0,0 0,-0.003 0,-0.003 v 0 c 0.048,-0.0516 0.099,-0.10062 0.1437,-0.15473 0.034,-0.0411 0.065,-0.0851 0.093,-0.13028 0.019,-0.0299 0.033,-0.0627 0.049,-0.0944 0.032,-0.0643 0.032,-0.0683 0.056,-0.12684 0,0 -0.2089,0.0974 -0.2089,0.0974 z" />
      <path
         style="fill:#000000;fill-opacity:1;stroke:none;stroke-width:1;stroke-opacity:0.417309"
         id="path3776"
         d="m 114.46713,82.52058 c -0.034,0.13809 -0.089,0.26988 -0.1472,0.39892 -0.017,0.0377 -0.049,0.0712 -0.053,0.11258 0,0.0238 0.026,0.0402 0.039,0.0603 0,0 0,-0.003 0,-0.003 v 0 c 0.051,-0.0493 0.1093,-0.0925 0.154,-0.14788 0.027,-0.0338 0.04,-0.0769 0.059,-0.11617 0.062,-0.13169 0.1156,-0.2689 0.1517,-0.40998 0,0 -0.2076,0.10414 -0.2076,0.10414 z" />
      <path
         style="fill:#000000;fill-opacity:1;stroke:none;stroke-width:1;stroke-opacity:0.417309"
         id="path3778"
         d="m 115.24223,82.63195 c -0.033,0.11996 -0.096,0.22886 -0.1415,0.3439 -0.012,0.03 -0.022,0.0609 -0.032,0.0914 0,0 0,-0.003 0,-0.003 v 0 c 0.102,-0.10263 0.1609,-0.15398 0.2458,-0.26884 0.055,-0.0745 0.085,-0.12076 0.1051,-0.20669 0,-0.0177 0,-0.0363 0,-0.0544 0,0 -0.1852,0.0965 -0.1852,0.0965 z" />
      <path
         style="fill:#000000;fill-opacity:1;stroke:none;stroke-width:1;stroke-opacity:0.417309"
         id="path3780"
         d="m 115.78093,82.75434 c 0,0.0135 0,0.0273 0,0.0406 -0.014,0.0706 -0.042,0.12608 -0.076,0.19085 -0.022,0.0433 -0.055,0.0817 -0.071,0.12763 -0.1239,0.34769 0.1422,-0.19068 -0.062,0.19849 0,0 0,-0.003 0,-0.003 v 0 c 0.035,-0.0418 0.069,-0.085 0.1053,-0.12539 0.05,-0.0554 0.1096,-0.10295 0.1557,-0.16198 0.03,-0.039 0.049,-0.0857 0.072,-0.12967 0.036,-0.0705 0.065,-0.12615 0.078,-0.20286 0,-0.0138 0,-0.028 0,-0.042 0,0 -0.2033,0.10615 -0.2033,0.10615 z" />
      <path
         style="fill:#000000;fill-opacity:1;stroke:none;stroke-width:1;stroke-opacity:0.417309"
         id="path3782"
         d="m 116.30743,82.68066 c 0,0.0723 -0.013,0.13853 -0.04,0.206 -0.017,0.0426 -0.044,0.0809 -0.059,0.12457 -0.1257,0.38438 0.1108,-0.19164 -0.063,0.21383 0,0 0,-0.003 0,-0.003 v 0 c 0.039,-0.0464 0.077,-0.0933 0.1163,-0.13933 0.046,-0.0547 0.1,-0.10398 0.141,-0.16288 0.028,-0.0397 0.046,-0.0857 0.064,-0.13052 0.029,-0.0713 0.043,-0.14303 0.041,-0.2195 0,0 -0.205,0.1097 -0.205,0.1097 z" />
      <path
         style="fill:#000000;fill-opacity:1;stroke:none;stroke-width:1;stroke-opacity:0.417309"
         id="path3784"
         d="m 116.86613,82.79951 c -0.036,0.13938 -0.09,0.27434 -0.1642,0.39772 -0.021,0.0352 -0.046,0.0685 -0.068,0.10274 -0.019,0.028 -0.085,0.12615 -0.1031,0.16248 -0.01,0.0151 -0.01,0.032 -0.016,0.048 0,0 0,-0.003 0,-0.003 v 0 c 0.041,-0.0312 0.084,-0.0604 0.1238,-0.0938 0.093,-0.0785 0.1174,-0.11395 0.1959,-0.20494 0.023,-0.0349 0.047,-0.0689 0.068,-0.10478 0.075,-0.12668 0.1282,-0.26432 0.1693,-0.40518 0,0 -0.21,0.0995 -0.21,0.0995 z" />
      <path
         style="fill:#000000;fill-opacity:1;stroke:none;stroke-width:1;stroke-opacity:0.417309"
         id="path3786"
         d="m 117.30033,82.66394 c 0,0.01 0,0.0193 0,0.0291 0,0.0388 -0.01,0.0729 -0.017,0.11081 -0.017,0.0651 -0.035,0.11207 -0.065,0.17383 -0.016,0.0342 -0.035,0.0671 -0.053,0.10067 -0.08,0.1233 -0.052,0.0864 -0.142,0.20299 -0.076,0.0989 -0.066,0.048 -0.068,0.12983 0,0 0,-0.003 0,-0.003 v 0 c 0.059,-0.0396 0.1211,-0.0745 0.1763,-0.11891 0.035,-0.0282 0.064,-0.0635 0.093,-0.0979 0.056,-0.067 0.095,-0.1329 0.1414,-0.20656 0.018,-0.0342 0.037,-0.0678 0.053,-0.10274 0.029,-0.0623 0.048,-0.11311 0.065,-0.17894 0.012,-0.0451 0.017,-0.0743 0.016,-0.11888 -10e-5,-0.0103 0,-0.0204 0,-0.0307 0,0 -0.2051,0.10919 -0.2051,0.10919 z" />
    </g>
  </g>
</svg>
