<?xml version="1.0" encoding="UTF-8" standalone="no"?>
<svg
   xmlns:dc="http://purl.org/dc/elements/1.1/"
   xmlns:cc="http://creativecommons.org/ns#"
   xmlns:rdf="http://www.w3.org/1999/02/22-rdf-syntax-ns#"
   xmlns:svg="http://www.w3.org/2000/svg"
   xmlns="http://www.w3.org/2000/svg"
   xmlns:sodipodi="http://sodipodi.sourceforge.net/DTD/sodipodi-0.dtd"
   xmlns:inkscape="http://www.inkscape.org/namespaces/inkscape"
   width="64"
   height="64"
   viewBox="0 0 16.933333 16.933334"
   version="1.1"
   id="svg2466"
   inkscape:version="1.0.2 (e86c870879, 2021-01-15)"
   sodipodi:docname="erase.svg">
  <defs
     id="defs2460" />
  <sodipodi:namedview
     id="base"
     pagecolor="#ffffff"
     bordercolor="#666666"
     borderopacity="1.0"
     inkscape:pageopacity="0.0"
     inkscape:pageshadow="2"
     inkscape:zoom="7.9195959"
     inkscape:cx="11.013002"
     inkscape:cy="37.947495"
     inkscape:document-units="mm"
     inkscape:current-layer="layer1"
     inkscape:document-rotation="0"
     showgrid="false"
     units="px"
     inkscape:window-width="2560"
     inkscape:window-height="1403"
     inkscape:window-x="1080"
     inkscape:window-y="104"
     inkscape:window-maximized="1" />
  <metadata
     id="metadata2463">
    <rdf:RDF>
      <cc:Work
         rdf:about="">
        <dc:format>image/svg+xml</dc:format>
        <dc:type
           rdf:resource="http://purl.org/dc/dcmitype/StillImage" />
        <dc:title></dc:title>
      </cc:Work>
    </rdf:RDF>
  </metadata>
  <g
     inkscape:label="Layer 1"
     inkscape:groupmode="layer"
     id="layer1">
    <g
       id="g2440"
       transform="matrix(2.5,0,0,2.5,-229.46877,-478.28972)">
      <path
         style="fill:#000000;fill-opacity:1;stroke:none;stroke-width:1;stroke-opacity:0.417309"
         id="path3668"
         d="m 92.710226,192.97492 c 0.1307,0.008 0.2609,0.0249 0.3919,0.0295 0.063,-2.4e-4 0.1266,0 0.1887,-0.0138 0.1658,-0.0493 0.3205,-0.14645 0.4492,-0.26223 0.044,-0.0425 0.086,-0.0879 0.1266,-0.13359 0.046,-0.0534 0.09,-0.10768 0.1358,-0.16129 0.047,-0.0531 0.092,-0.10856 0.1352,-0.16481 0.038,-0.0478 0.074,-0.0971 0.1108,-0.14602 0.034,-0.0465 0.074,-0.0886 0.118,-0.12599 0.1192,-0.074 0.2973,-0.18341 -0.2629,0.15216 -0.01,0.006 0.022,-0.0103 0.033,-0.0145 0.029,-0.0111 0.047,-0.0154 0.077,-0.0233 0.091,-0.0217 0.1842,-0.0238 0.2769,-0.0259 0.1227,-0.004 0.2455,-0.004 0.3683,-0.004 0.1213,-0.003 0.2427,-0.003 0.364,0 0.098,0.003 0.1947,0.0159 0.2896,0.0399 0.088,0.0228 0.1648,0.0695 0.2373,0.12268 0.082,0.0617 0.1495,0.13925 0.2126,0.21974 0.063,0.0829 0.1184,0.17134 0.18,0.25532 0.052,0.0674 0.1129,0.12795 0.1785,0.18235 0.068,0.0568 0.1482,0.0899 0.2322,0.11441 0.094,0.0227 0.1898,0.0373 0.2852,0.0533 0.083,0.0122 0.1651,0.0243 0.2478,0.0345 0.052,0 0.1172,0.0285 0.1683,0.007 0.031,-0.013 0.059,-0.0314 0.088,-0.047 0.043,-0.0265 0.087,-0.0527 0.13,-0.079 0,0 0.01,-0.006 0.01,-0.006 v 0 c 0.035,-0.0288 0.071,-0.0576 0.1059,-0.0864 0.017,-0.0177 0.038,-0.0322 0.05,-0.0536 0,-0.005 -0.01,-0.01 -0.014,-0.0116 -0.043,-0.0135 -0.095,0.003 -0.1388,-0.007 -0.087,-0.005 -0.1747,-0.009 -0.2614,-0.0214 -0.097,-0.0124 -0.1943,-0.0259 -0.2907,-0.0439 -0.081,-0.0167 -0.1591,-0.0425 -0.2254,-0.0947 -0.063,-0.0512 -0.1182,-0.11091 -0.1663,-0.17666 -0.063,-0.0834 -0.1185,-0.17235 -0.1823,-0.25527 -0.066,-0.0839 -0.1362,-0.16404 -0.2216,-0.22892 -0.077,-0.0569 -0.1594,-0.10747 -0.253,-0.13298 -0.099,-0.0259 -0.1994,-0.0435 -0.302,-0.0436 -0.1237,-0.003 -0.2473,0 -0.371,0.003 -0.1287,0.004 -0.2573,0.009 -0.3858,0.0159 -0.096,0.005 -0.1922,0.006 -0.2868,0.023 -0.2025,0.0451 -0.387,0.1529 -0.546,0.28652 -0.042,0.0412 -0.081,0.0857 -0.116,0.13353 -0.036,0.0485 -0.072,0.0972 -0.1095,0.14473 -0.042,0.0547 -0.086,0.10822 -0.1308,0.16124 -0.044,0.053 -0.086,0.10755 -0.1328,0.15848 -0.04,0.044 -0.08,0.0883 -0.1247,0.12727 -0.017,0.014 -0.023,0.019 -0.041,0.0311 -0.01,0.004 -0.025,0.0153 -0.019,0.0116 0.5402,-0.30652 0.3767,-0.21058 0.2598,-0.14938 -0.069,0.0272 -0.1412,0.0452 -0.2158,0.0468 -0.1368,0.005 -0.2737,-0.003 -0.41,-0.0135 0,0 -0.2419,0.1729 -0.2419,0.1729 z" />
      <path
         style="fill:#000000;fill-opacity:1;stroke:none;stroke-width:1;stroke-opacity:0.417309"
         id="path3670"
         d="m 93.784326,192.94012 c 0.1914,0.005 0.3828,0.008 0.5742,0.006 0.2002,-0.003 0.4005,-0.007 0.6007,-0.007 0.1719,0 0.3437,0.006 0.5151,0.0193 0.1611,0.0138 0.3207,0.0397 0.4799,0.0664 0.055,0 0.1617,0.0418 0.2146,0.0327 0.087,-0.0148 0.212,-0.0826 0.284,-0.11676 0,0 0.01,-0.006 0.01,-0.006 v 0 c 0.036,-0.0409 0.1208,-0.11891 0.1023,-0.15391 -0.01,-0.0122 -0.1855,-0.0325 -0.2066,-0.0386 -0.1607,-0.0275 -0.3216,-0.0552 -0.4843,-0.0685 -0.1741,-0.0148 -0.3488,-0.0191 -0.5236,-0.0183 -0.2028,0 -0.4056,0.007 -0.6084,0.0122 -0.1941,0.004 -0.3881,0.004 -0.5822,0.003 0,0 -0.3739,0.2708 -0.3739,0.2708 z" />
      <path
         style="fill:#000000;fill-opacity:1;stroke:none;stroke-width:1;stroke-opacity:0.417309"
         id="path3672"
         d="m 92.888826,193.13118 c 0.041,0.22296 0.062,0.44879 0.076,0.67482 0.01,0.21487 0.011,0.43 0.012,0.64505 0,0.18836 0,0.37672 0,0.56507 0,0.19611 -1e-4,0.39222 0,0.58833 0,0.16587 0,0.33168 -0.01,0.49744 0,0.12968 -0.01,0.25938 0,0.38905 0,0.10102 0.015,0.20111 0.032,0.30046 0.016,0.0867 0.049,0.16695 0.1011,0.23765 0.06,0.0733 0.1402,0.12073 0.2233,0.1625 0.095,0.0459 0.1952,0.0794 0.2965,0.10811 0.1104,0.0285 0.2224,0.0505 0.3341,0.0734 0.1382,0.029 0.2765,0.0574 0.4155,0.0827 0.1393,0.0259 0.279,0.049 0.4195,0.0675 0.1521,0.0204 0.3048,0.0363 0.4577,0.0497 0.123,0.0122 0.246,0.0145 0.3691,0.006 0.1308,-0.0106 0.2588,-0.0405 0.3866,-0.0687 0.1145,-0.0265 0.2296,-0.0496 0.3455,-0.069 0.071,-0.0124 0.1418,-0.022 0.2118,-0.0379 0.2126,-0.0697 0.4513,-0.16023 0.5383,-0.371 0.04,-0.0988 0.057,-0.2042 0.073,-0.30882 0.019,-0.11723 0.028,-0.23577 0.034,-0.35427 0.01,-0.14066 0.01,-0.28152 0,-0.42225 -0.01,-0.1755 -0.017,-0.35087 -0.025,-0.52631 -0.01,-0.16899 -0.014,-0.33817 -0.01,-0.50739 0.01,-0.16616 0.021,-0.33176 0.036,-0.49729 0.014,-0.14258 0.026,-0.28527 0.033,-0.42836 0.01,-0.13017 0.013,-0.2604 0.018,-0.39066 0,-0.1208 0.011,-0.24143 0.017,-0.36205 0.01,-0.11618 0.01,-0.23254 0.011,-0.34891 -0.051,-0.0633 -0.01,-0.0304 -0.1453,-0.005 -0.026,0.005 -0.053,0.008 -0.08,0.0124 0,0 -0.01,0.005 -0.01,0.005 v 0 c -0.023,0.022 -0.046,0.0448 -0.07,0.0657 -0.1335,0.11525 -0.093,0.0446 -0.1374,0.14671 0,0.11541 0,0.23082 -0.011,0.34602 -0.01,0.12089 -0.014,0.24178 -0.017,0.36282 -0.01,0.12991 -0.011,0.25977 -0.018,0.38963 -0.01,0.14237 -0.02,0.28445 -0.033,0.42643 -0.014,0.16642 -0.029,0.3329 -0.034,0.49995 0,0.17032 0,0.34047 0.011,0.51054 0.01,0.17489 0.02,0.34973 0.024,0.52483 0,0.14012 0,0.2803 -0.01,0.42029 -0.01,0.11703 -0.016,0.23403 -0.036,0.34973 -0.017,0.10107 -0.036,0.2033 -0.082,0.29625 -0.016,0.0262 -0.018,0.0348 -0.039,0.0551 -0.01,0.006 -0.028,0.0206 -0.02,0.0164 0.693,-0.3901 0.5047,-0.29387 0.36,-0.20529 -0.069,0.0281 -0.1428,0.0365 -0.2154,0.0495 -0.117,0.019 -0.2335,0.0407 -0.3488,0.0682 -0.1253,0.0278 -0.2506,0.0588 -0.3787,0.0713 -0.1214,0.0103 -0.2431,0.009 -0.3646,0 -0.1543,-0.0109 -0.3081,-0.0283 -0.462,-0.044 -0.1404,-0.0164 -0.2798,-0.0388 -0.4186,-0.0651 -0.1388,-0.0243 -0.2769,-0.0521 -0.4146,-0.0816 -0.1102,-0.0236 -0.2209,-0.0449 -0.3302,-0.072 -0.098,-0.028 -0.1933,-0.0641 -0.2867,-0.10475 -0.078,-0.0362 -0.1569,-0.0761 -0.2167,-0.13983 -0.05,-0.0642 -0.076,-0.13817 -0.089,-0.21831 -0.016,-0.0971 -0.028,-0.19505 -0.029,-0.29366 0,-0.12875 0,-0.25747 0,-0.38619 0,-0.16515 0,-0.3303 0,-0.49548 0,-0.19534 0,-0.39069 0,-0.58605 0,-0.18889 0,-0.3778 0,-0.56669 0,-0.21204 -0.016,-0.42383 -0.039,-0.63476 -0.021,-0.22487 -0.045,-0.44966 -0.095,-0.6703 0,0 -0.3697,0.19752 -0.3697,0.19752 z" />
      <path
         style="fill:#000000;fill-opacity:1;stroke:none;stroke-width:1;stroke-opacity:0.417309"
         id="path3674"
         d="m 94.196226,193.93908 c -0.013,0.33288 0,0.66631 0.01,0.99912 0.018,0.36378 0.028,0.72782 0.039,1.09186 0.01,0.16801 0,0.11158 0.013,0.27451 0,0.0397 0,0.0798 0.01,0.11911 0,0.0315 0,0.072 0.026,0.0921 0.032,0.0257 0.08,0.0148 0.1194,0.0251 0.027,0.007 0.053,0.0185 0.079,0.0277 0,0 0.01,-0.005 0.01,-0.005 v 0 c 0.025,-0.0355 0.048,-0.0717 0.074,-0.10657 0.036,-0.049 0.085,-0.0901 0.1115,-0.14483 0.017,-0.034 0.013,-0.0748 0.014,-0.11258 0,-0.12727 -0.026,-0.26324 -0.021,-0.39109 -0.014,-0.36282 -0.029,-0.72559 -0.045,-1.08833 -0.01,-0.33343 -0.019,-0.66858 0.013,-1.00111 0,0 -0.4432,0.2195 -0.4432,0.2195 z" />
      <path
         style="fill:#000000;fill-opacity:1;stroke:none;stroke-width:1;stroke-opacity:0.417309"
         id="path3676"
         d="m 95.489826,193.9493 c 0.031,0.42304 0.031,0.84772 0.033,1.27169 0,0.3723 0.01,0.74462 0.01,1.11694 0,0.0965 0,0.0985 0,0.19055 0,0.0257 -0.01,0.0533 0,0.077 0.01,0.0198 0.026,0.0423 0.047,0.0435 0.057,0.003 0.1129,-0.0212 0.1694,-0.0316 0,0 0.01,-0.005 0.01,-0.005 v 0 c 0.057,-0.0479 0.1204,-0.0887 0.1704,-0.14364 0.055,-0.0604 0.041,-0.0964 0.037,-0.16505 0,-0.0861 0,-0.0983 -0.01,-0.18817 -0.01,-0.36968 -0.02,-0.73938 -0.022,-1.10919 0,-0.42788 0,-0.85582 -0.014,-1.28357 0,0 -0.4379,0.22606 -0.4379,0.22606 z" />
      <path
         style="fill:#000000;fill-opacity:1;stroke:none;stroke-width:1;stroke-opacity:0.417309"
         id="path3843"
         d="m 93.122626,193.37147 c 0.1468,-0.0399 0.28,-0.11443 0.415,-0.18251 0,0 0.01,-0.004 0.01,-0.004 v 0 c -0.01,-0.008 -0.013,-0.0209 -0.023,-0.0257 -0.059,-0.0259 -0.1173,0.0214 -0.1722,0.0355 0,0 -0.2249,0.17661 -0.2249,0.17661 z" />
      <path
         style="fill:#000000;fill-opacity:1;stroke:none;stroke-width:1;stroke-opacity:0.417309"
         id="path3845"
         d="m 93.118626,194.07299 c 0.1054,-0.0212 0.2099,-0.049 0.309,-0.0912 0.065,-0.0276 0.1272,-0.0607 0.1908,-0.091 0,0 0.01,-0.004 0.01,-0.004 v 0 c 0,-0.0151 0,-0.0386 -0.012,-0.0455 -0.023,-0.0114 -0.052,0 -0.077,0.003 -0.024,0.003 -0.1232,0.0262 -0.1553,0.0334 0,0 -0.2605,0.19632 -0.2605,0.19632 z" />
      <path
         style="fill:#000000;fill-opacity:1;stroke:none;stroke-width:1;stroke-opacity:0.417309"
         id="path3847"
         d="m 93.072626,195.11193 c 0.1473,-0.0375 0.2913,-0.0899 0.4327,-0.14549 0.055,-0.0217 0.1105,-0.0422 0.1639,-0.0675 0.075,-0.0353 0.1469,-0.076 0.2203,-0.11407 0,0 0.01,-0.004 0.01,-0.004 v 0 c -0.062,-0.0573 -0.023,-0.0388 -0.1515,-3e-5 -0.149,0.045 -0.2946,0.10176 -0.4411,0.15441 0,0 -0.2296,0.17669 -0.2296,0.17669 z" />
      <path
         style="fill:#000000;fill-opacity:1;stroke:none;stroke-width:1;stroke-opacity:0.417309"
         id="path3849"
         d="m 93.340926,195.86687 c 0.1131,-0.0765 0.2302,-0.14695 0.3475,-0.21662 0.053,-0.0317 0.1081,-0.0613 0.1608,-0.0941 0.036,-0.0225 -0.1445,0.0876 -0.1103,0.0627 0.076,-0.0552 0.1569,-0.10253 0.2354,-0.15378 0,0 0.01,-0.004 0.01,-0.004 v 0 c 0,-0.008 -0.01,-0.0294 -0.014,-0.0251 -0.1416,0.0694 -0.2744,0.15539 -0.4111,0.23392 -0.1759,0.10104 -0.3523,0.20352 -0.5173,0.32179 0,0 0.3041,-0.12452 0.3041,-0.12452 z" />
      <path
         style="fill:#000000;fill-opacity:1;stroke:none;stroke-width:1;stroke-opacity:0.417309"
         id="path3851"
         d="m 93.079326,196.75833 c 0.079,-0.0357 0.1532,-0.0802 0.2275,-0.12401 0.1225,-0.0722 0.2481,-0.13941 0.367,-0.21739 0.01,-0.004 0,-0.0124 -0.01,-0.0185 0,0 0.01,-0.004 0.01,-0.004 v 0 c -0.4821,0.23122 -0.2215,0.11613 -0.1179,0.0401 0.032,-0.0233 -0.069,0.0395 -0.103,0.0591 -0.027,0.0153 -0.054,0.0303 -0.081,0.0456 -0.02,0.0116 -0.041,0.0235 -0.061,0.0354 0,0 -0.2297,0.18386 -0.2297,0.18386 z" />
      <path
         style="fill:#000000;fill-opacity:1;stroke:none;stroke-width:1;stroke-opacity:0.417309"
         id="path3853"
         d="m 93.892726,197.01526 c 0.073,-0.0478 0.1473,-0.0948 0.2165,-0.14822 0.02,-0.0156 0.045,-0.0274 0.058,-0.0491 0,-0.007 -0.013,-0.01 -0.019,-0.0151 0,0 -0.01,0.003 -0.01,0.003 v 0 c -0.061,0.0316 -0.1234,0.0616 -0.1838,0.0947 -0.1243,0.0683 -0.2414,0.14935 -0.3578,0.23013 0,0 0.2921,-0.1148 0.2921,-0.1148 z" />
      <path
         style="fill:#000000;fill-opacity:1;stroke:none;stroke-width:1;stroke-opacity:0.417309"
         id="path3855"
         d="m 93.895126,192.37508 c 0.071,-0.0101 0.1397,-0.0304 0.2083,-0.0511 0.035,-0.0106 0.071,-0.0188 0.1045,-0.0325 0.054,-0.0222 0.1057,-0.0504 0.1586,-0.0756 0,0 0.01,-0.004 0.01,-0.004 v 0 c 0,-0.0145 0.011,-0.0359 0,-0.0436 -0.018,-0.0114 -0.043,0 -0.065,0.003 -0.064,0.004 -0.1259,0.0161 -0.1872,0.0343 0,0 -0.2232,0.17029 -0.2232,0.17029 z" />
      <path
         style="fill:#000000;fill-opacity:1;stroke:none;stroke-width:1;stroke-opacity:0.417309"
         id="path3857"
         d="m 93.692526,192.69975 c 0.032,-0.008 0.1825,-0.0443 0.2054,-0.0539 0.075,-0.0314 0.1454,-0.072 0.2182,-0.10803 0,0 0.01,-0.004 0.01,-0.004 v 0 c 0,-0.0161 0,-0.0453 -0.014,-0.0484 -0.01,0 -0.1892,0.048 -0.2008,0.0511 0,0 -0.2139,0.16327 -0.2139,0.16327 z" />
      <path
         style="fill:#000000;fill-opacity:1;stroke:none;stroke-width:1;stroke-opacity:0.417309"
         id="path3859"
         d="m 95.110926,194.34919 c 0.1536,-0.068 0.2943,-0.16034 0.4344,-0.2521 0,0 0.01,-0.004 0.01,-0.004 v 0 c 0,-0.006 0.01,-0.0156 0,-0.0185 -0.01,-0.005 -0.02,0.003 -0.029,0.005 -0.058,0.0191 -0.1115,0.0512 -0.1673,0.0754 0,0 -0.2455,0.19454 -0.2455,0.19454 z" />
      <path
         style="fill:#000000;fill-opacity:1;stroke:none;stroke-width:1;stroke-opacity:0.417309"
         id="path3861"
         d="m 95.187226,194.84534 c 0.111,-0.0377 0.2102,-0.10782 0.3094,-0.16807 0,0 0.01,-0.004 0.01,-0.004 v 0 c 0.01,-0.0132 0.019,-0.0257 0.016,-0.0396 0,-0.0238 -0.09,0.014 -0.071,0.0106 0,0 -0.2595,0.20124 -0.2595,0.20124 z" />
      <path
         style="fill:#000000;fill-opacity:1;stroke:none;stroke-width:1;stroke-opacity:0.417309"
         id="path3863"
         d="m 95.540926,195.53431 c 0.047,-0.0378 0.1062,-0.0527 -0.018,-0.0246 0,0 -0.01,0.003 -0.01,0.003 v 0 c -0.096,0.0439 -0.1923,0.0849 -0.2823,0.13991 0,0 0.3068,-0.11782 0.3068,-0.11782 z" />
      <path
         style="fill:#000000;fill-opacity:1;stroke:none;stroke-width:1;stroke-opacity:0.417309"
         id="path3865"
         d="m 95.529026,196.33126 c 0.01,-0.005 0.095,-0.0663 0.093,-0.0689 -0.011,-0.0209 -0.047,0.003 -0.071,0.004 0,0 -0.01,0.003 -0.01,0.003 v 0 c -0.1127,0.0574 -0.2227,0.10583 -0.3221,0.18285 0,0 0.3058,-0.12017 0.3058,-0.12017 z" />
      <path
         style="fill:#000000;fill-opacity:1;stroke:none;stroke-width:1;stroke-opacity:0.417309"
         id="path3867"
         d="m 93.866326,194.27214 c 0.1699,-0.0792 0.3305,-0.17708 0.4902,-0.27493 0,0 0.01,-0.004 0.01,-0.004 v 0 c 0,-0.007 0,-0.0198 0,-0.0206 -0.017,-0.003 -0.033,0.01 -0.049,0.0153 -0.068,0.023 -0.1313,0.0538 -0.1949,0.0859 0,0 -0.2499,0.19841 -0.2499,0.19841 z" />
      <path
         style="fill:#000000;fill-opacity:1;stroke:none;stroke-width:1;stroke-opacity:0.417309"
         id="path3869"
         d="m 94.151926,195.04652 c -0.025,0.0119 0.1597,-0.0934 0.1187,-0.0719 -0.054,0.0286 -0.104,0.0669 -0.1611,0.0896 -0.041,0.0164 0.076,-0.0469 0.1133,-0.0706 0.046,-0.029 0.092,-0.0584 0.1382,-0.0876 0,0 0,-0.004 0,-0.004 v 0 c -0.013,-0.0307 0,-0.0274 -0.056,1.3e-4 -0.1508,0.0811 -0.303,0.16561 -0.448,0.25821 0,0 0.2898,-0.11377 0.2898,-0.11377 z" />
      <path
         style="fill:#000000;fill-opacity:1;stroke:none;stroke-width:1;stroke-opacity:0.417309"
         id="path3871"
         d="m 94.202326,196.04181 c 0.02,-0.0169 0.094,-0.0776 0.1107,-0.0923 0.017,-0.0156 0.046,-0.0254 0.051,-0.0482 0,-0.013 -0.025,-0.006 -0.038,-0.009 0,0 -0.01,0.003 -0.01,0.003 v 0 c -0.067,0.035 -0.1352,0.067 -0.2003,0.10502 -0.072,0.0418 -0.1367,0.0985 -0.1942,0.15806 0,0 0.2769,-0.1156 0.2769,-0.1156 z" />
    </g>
  </g>
</svg>
