<?xml version="1.0" encoding="UTF-8" standalone="no"?>
<svg
   xmlns:dc="http://purl.org/dc/elements/1.1/"
   xmlns:cc="http://creativecommons.org/ns#"
   xmlns:rdf="http://www.w3.org/1999/02/22-rdf-syntax-ns#"
   xmlns:svg="http://www.w3.org/2000/svg"
   xmlns="http://www.w3.org/2000/svg"
   xmlns:sodipodi="http://sodipodi.sourceforge.net/DTD/sodipodi-0.dtd"
   xmlns:inkscape="http://www.inkscape.org/namespaces/inkscape"
   width="64"
   height="64"
   viewBox="0 0 16.933333 16.933334"
   version="1.1"
   id="svg2466"
   inkscape:version="1.0.2 (e86c870879, 2021-01-15)"
   sodipodi:docname="export.svg">
  <defs
     id="defs2460" />
  <sodipodi:namedview
     id="base"
     pagecolor="#ffffff"
     bordercolor="#666666"
     borderopacity="1.0"
     inkscape:pageopacity="0.0"
     inkscape:pageshadow="2"
     inkscape:zoom="7.9195959"
     inkscape:cx="11.013002"
     inkscape:cy="37.947495"
     inkscape:document-units="mm"
     inkscape:current-layer="layer1"
     inkscape:document-rotation="0"
     showgrid="false"
     units="px"
     inkscape:window-width="2560"
     inkscape:window-height="1403"
     inkscape:window-x="1080"
     inkscape:window-y="104"
     inkscape:window-maximized="1" />
  <metadata
     id="metadata2463">
    <rdf:RDF>
      <cc:Work
         rdf:about="">
        <dc:format>image/svg+xml</dc:format>
        <dc:type
           rdf:resource="http://purl.org/dc/dcmitype/StillImage" />
        <dc:title></dc:title>
      </cc:Work>
    </rdf:RDF>
  </metadata>
  <g
     inkscape:label="Layer 1"
     inkscape:groupmode="layer"
     id="layer1">
    <g
       id="g2377"
       transform="matrix(2.5,0,0,2.5,-248.88753,-193.00527)">
      <path
         style="fill:#000000;fill-opacity:1;stroke:none;stroke-width:1;stroke-opacity:0.417309"
         id="path3656"
         d="m 101.07413,83.04359 c 0.015,-0.24789 0.037,-0.49525 0.052,-0.74317 0.013,-0.27244 0.037,-0.54403 0.064,-0.81539 0.024,-0.23484 0.047,-0.46987 0.067,-0.70509 0.026,-0.26842 0.048,-0.53705 0.061,-0.80639 0.01,-0.21662 0.02,-0.43315 0.023,-0.64998 0,-0.14981 0,-0.29967 0,-0.44945 0,-0.12983 0,-0.25969 -0.01,-0.38952 0,-0.12827 -0.01,-0.25648 -0.013,-0.38475 0,-0.0773 -0.016,-0.15553 0,-0.23244 -0.043,-0.006 0.084,-0.0586 0.062,-0.0445 -0.1121,0.0706 -0.2322,0.12846 -0.3415,0.20336 -0.016,0.0114 0.039,-0.008 0.059,-0.01 0.024,-0.003 0.048,-0.003 0.072,-0.003 0.1875,0.004 0.3734,0.033 0.559,0.0576 0.1801,0.0257 0.3615,0.0376 0.5429,0.0489 0.118,0.006 0.2358,0.0138 0.3534,0.0243 0.078,0.007 0.1561,0.0169 0.2339,0.0272 0.044,0.006 0.088,0.0106 0.1311,0.0175 0.065,0.0108 0.1206,0.0441 0.1737,0.0817 0.1348,0.11822 0.2547,0.25247 0.3796,0.38098 0.1334,0.14025 0.2738,0.27336 0.4187,0.4015 0.1033,0.0902 0.2098,0.17666 0.3177,0.26128 0.072,0.0557 0.1455,0.11075 0.2148,0.17036 0.058,0.0514 0.1142,0.10494 0.1584,0.16849 0.055,0.074 0.048,0.16063 0.044,0.24781 -0.014,0.20468 -0.039,0.40844 -0.063,0.61222 -0.029,0.24516 -0.053,0.49088 -0.071,0.73707 -0.013,0.20762 -0.024,0.41532 -0.036,0.62297 -0.01,0.16364 -0.011,0.32744 -0.012,0.49125 0,0.13721 0,0.27442 0,0.41166 0,0.11176 -0.01,0.22347 -0.024,0.33396 -0.01,0.0488 -0.022,0.10274 -0.069,0.12988 -0.014,0.008 -0.058,0.0281 -0.045,0.0196 0.1207,-0.0749 0.2438,-0.14573 0.3657,-0.2186 -0.1806,0.0607 -0.3712,0.0791 -0.5601,0.0918 -0.2325,0.0114 -0.465,-0.004 -0.6963,-0.0262 -0.201,-0.0212 -0.4002,-0.0555 -0.6003,-0.0837 -0.212,-0.0298 -0.426,-0.0365 -0.6397,-0.0414 -0.1948,-0.003 -0.3896,-0.007 -0.5843,-0.0119 -0.098,0.008 -0.2761,-0.0293 -0.3642,0.0132 -0.071,0.0343 -0.1376,0.0778 -0.2064,0.11668 0,0 -0.01,0.006 -0.01,0.006 v 0 c -0.044,0.0434 -0.096,0.0804 -0.1335,0.13023 -0.01,0.008 0.013,0.0169 0.022,0.019 0.019,0.004 0.04,-1.1e-4 0.059,-6e-5 0.078,1.3e-4 0.156,0 0.2339,0.003 0.1953,0.004 0.3906,0.009 0.5859,0.0109 0.2124,0.004 0.4252,0.01 0.6361,0.0369 0.2007,0.0273 0.4002,0.0638 0.6017,0.0852 0.233,0.0222 0.4667,0.0394 0.7009,0.0323 0.1904,-0.01 0.3803,-0.0273 0.5652,-0.0762 0.1615,-0.0885 0.3244,-0.17425 0.4843,-0.26532 0.068,-0.0389 0.085,-0.11848 0.096,-0.18955 0.012,-0.11126 0.011,-0.22341 0.013,-0.33515 0,-0.13694 0,-0.27389 0,-0.41084 0,-0.16272 0,-0.32546 0.011,-0.48802 0.01,-0.20659 0.018,-0.41323 0.032,-0.61963 0.017,-0.24546 0.042,-0.4903 0.071,-0.73462 0.025,-0.20539 0.05,-0.41095 0.064,-0.6174 0,-0.10023 0,-0.19463 -0.068,-0.27308 -0.054,-0.0593 -0.1082,-0.11938 -0.1688,-0.17235 -0.07,-0.0597 -0.1448,-0.11472 -0.2181,-0.17087 -0.1088,-0.0832 -0.2167,-0.16758 -0.3215,-0.25572 -0.1461,-0.12578 -0.2867,-0.25752 -0.421,-0.39581 -0.1267,-0.12973 -0.2482,-0.26469 -0.3811,-0.38812 -0.055,-0.0439 -0.1135,-0.0836 -0.1831,-0.0998 -0.044,-0.0106 -0.088,-0.0143 -0.1329,-0.0201 -0.079,-0.01 -0.1581,-0.0193 -0.2373,-0.0269 -0.1192,-0.0106 -0.2385,-0.0185 -0.3581,-0.023 -0.1818,-0.008 -0.3637,-0.0201 -0.5443,-0.0438 -0.1874,-0.0236 -0.3745,-0.0531 -0.5635,-0.0617 0,-5e-5 -0.1259,-0.004 -0.135,0 -0.075,0.0353 -0.4313,0.12674 -0.4724,0.3102 -0.01,0.08 0,0.16042 0,0.24048 0,0.12777 0.011,0.25548 0.016,0.38322 0,0.12907 0.01,0.25816 0.01,0.38722 0,0.14854 0.01,0.29707 0.01,0.44564 0,0.21315 2e-4,0.42629 -0.01,0.63939 -0.01,0.26355 -0.016,0.52721 -0.032,0.79036 -0.017,0.23212 -0.033,0.46424 -0.05,0.69633 -0.021,0.27104 -0.044,0.542 -0.058,0.81357 -0.014,0.2467 -0.029,0.49332 -0.045,0.73986 0,0 0.3146,-0.15823 0.3146,-0.15823 z" />
      <path
         style="fill:#000000;fill-opacity:1;stroke:none;stroke-width:1;stroke-opacity:0.417309"
         id="path3658"
         d="m 102.89333,78.25317 c 0.01,0.23482 -0.023,0.46863 -0.043,0.70215 0,0.12073 -0.042,0.26131 0.013,0.37714 0.034,0.0718 0.059,0.0741 0.1251,0.11655 0.035,0.0111 0.069,0.0249 0.1048,0.0332 0.074,0.0175 0.1937,0.0294 0.2675,0.0369 0.1536,0.0156 0.307,0.0262 0.4612,0.0334 0.2644,-0.0589 0.1425,-0.0389 0.3645,-0.0666 0,0 0.01,-0.006 0.01,-0.006 v 0 c -0.057,-0.0837 -0.034,-0.0353 -0.059,-0.14859 -0.1294,-0.0366 -0.1179,-0.0376 -0.258,-0.0584 -0.1682,-0.0249 -0.341,-0.0249 -0.5051,-0.0736 -0.023,-0.0114 -0.049,-0.0185 -0.069,-0.0344 -0.1048,-0.0827 -0.056,-0.29787 -0.054,-0.40894 0.02,-0.23384 0.046,-0.46876 0.032,-0.70374 0,0 -0.3875,0.20072 -0.3875,0.20072 z" />
      <path
         style="fill:#000000;fill-opacity:1;stroke:none;stroke-width:1;stroke-opacity:0.417309"
         id="path3718"
         d="m 102.46753,80.80804 c 0,0.0175 0,0.035 0,0.0525 0,0.0479 0,0.1392 0,0.18365 0,0.14464 -0.016,0.28908 -0.026,0.43341 0,0.0856 0,0.15208 0.025,0.23355 0.01,0.0233 0.022,0.0433 0.033,0.065 0,0 0,-0.003 0,-0.003 v 0 c 0.02,-0.0369 0.043,-0.0722 0.059,-0.11057 0.048,-0.11191 0.053,-0.1651 0.078,-0.28519 0.012,-0.14462 0.023,-0.28866 0.024,-0.43386 0,-0.0562 0,-0.12399 -0.01,-0.18087 0,-0.0164 -0.01,-0.0325 -0.01,-0.0487 0,0 -0.1782,0.0932 -0.1782,0.0932 z" />
      <path
         style="fill:#000000;fill-opacity:1;stroke:none;stroke-width:1;stroke-opacity:0.417309"
         id="path3720"
         d="m 102.29463,80.97301 c 0.024,-0.10597 0.069,-0.20979 0.1463,-0.28845 0.033,-0.0333 0.072,-0.0597 0.1092,-0.0877 0.011,-0.008 -0.021,0.0196 -0.031,0.0294 0.044,-0.0122 0.086,-0.0305 0.131,-0.0367 0.1334,-0.0188 0.2504,0.0183 0.345,0.11467 0.081,0.0829 0.1041,0.14917 0.1554,0.25154 0.015,0.0522 0.034,0.10335 0.044,0.1565 0.044,0.2227 0.027,0.46101 -0.072,0.66765 -0.024,0.0514 -0.058,0.0976 -0.088,0.14642 -0.043,0.0442 -0.082,0.0915 -0.1279,0.13266 -0.081,0.0729 -0.2073,0.16336 -0.3077,0.20688 -0.014,0.006 0.042,-0.0382 0.028,-0.0348 -0.01,0.003 -0.3451,0.1406 -0.3481,0.14182 -0.045,0.0153 -0.09,0.0305 -0.1352,0.0457 0,0 0,0.003 0,0.003 v 0 c 0.028,-0.003 0.056,-0.005 0.084,-0.007 0.03,-0.003 0.061,0.003 0.091,-0.004 0.1762,-0.0352 0.3403,-0.14256 0.4912,-0.22439 0.055,-0.0299 0.1101,-0.0605 0.1616,-0.0963 0.1367,-0.0952 0.1585,-0.13226 0.2708,-0.25421 0.076,-0.13301 0.1053,-0.16235 0.1415,-0.31303 0.04,-0.16475 0.033,-0.34478 -0.01,-0.50892 -0.013,-0.0536 -0.034,-0.10478 -0.05,-0.15717 -0.053,-0.10281 -0.08,-0.17372 -0.1624,-0.25765 -0.099,-0.10088 -0.22,-0.14203 -0.3602,-0.12567 -0.046,0.005 -0.09,0.023 -0.1344,0.0345 -0.097,0.0531 -0.1972,0.10028 -0.2907,0.15923 -0.103,0.065 -0.1743,0.16647 -0.2193,0.27749 -0.014,0.034 -0.022,0.0747 -0.03,0.11076 0,0 0.1675,-0.0822 0.1675,-0.0822 z" />
      <path
         style="fill:#000000;fill-opacity:1;stroke:none;stroke-width:1;stroke-opacity:0.417309"
         id="path3722"
         d="m 103.69003,82.0016 c 0.026,-0.18666 0.046,-0.37441 0.057,-0.56269 0,-0.0638 0.01,-0.12763 0.01,-0.19145 1e-4,-0.0619 0,-0.12385 0,-0.18576 0,-0.12613 -0.01,-0.20085 -0.014,-0.32478 -0.01,-0.0757 -0.014,-0.15115 -0.019,-0.22693 0,-0.0243 0,-0.0489 0,-0.0733 0,-0.0164 0,-0.0339 0.01,-0.0495 0,-0.0111 0.014,-0.019 0.022,-0.0284 -0.055,0.034 -0.1156,0.0595 -0.1639,0.1021 -0.016,0.0143 0.042,-0.0106 0.063,-0.0135 0.051,-0.007 0.1385,-0.007 0.1882,-0.008 0.1002,0 0.2005,0 0.3007,0.003 0.032,0 0.1266,0.007 0.1615,0.006 0.025,0 0.05,-0.005 0.075,-0.008 0.037,-0.014 0.075,-0.0281 0.1122,-0.0422 0,0 0,-0.003 0,-0.003 v 0 c 0.01,-0.0188 0.018,-0.0378 0.026,-0.0566 -0.013,-0.006 -0.025,-0.0148 -0.039,-0.0183 -0.033,-0.008 -0.1256,-0.0109 -0.1544,-0.0119 -0.1005,-0.004 -0.201,-0.005 -0.3016,-0.004 -0.066,0 -0.1221,0 -0.1878,0.005 -0.022,0 -0.047,-0.004 -0.067,0.006 -0.042,0.0204 -0.2232,0.0758 -0.247,0.17526 0,0.0169 0,0.0347 0,0.0521 0.01,0.0996 0.018,0.19828 0.027,0.29766 0.015,0.16727 0.026,0.33501 0.023,0.50305 0,0.18989 0,0.17992 -0.014,0.36523 -0.01,0.0754 -0.018,0.19651 -0.022,0.27596 0,0.0541 0,0.0542 0,0.098 0,0 0.1559,-0.0801 0.1559,-0.0801 z" />
      <path
         style="fill:#000000;fill-opacity:1;stroke:none;stroke-width:1;stroke-opacity:0.417309"
         id="path3724"
         d="m 103.66013,81.24886 c 0.1033,-0.0177 0.2097,-0.0274 0.3082,-0.0656 0.03,-0.0116 0.059,-0.027 0.088,-0.0405 0.034,-0.0201 0.068,-0.0405 0.1021,-0.0607 0,0 0,-0.003 0,-0.003 v 0 c 0,-0.008 0,-0.0153 0.01,-0.023 -0.053,-0.003 -0.026,-0.003 -0.096,0.0122 -0.082,0.018 -0.1641,0.0358 -0.246,0.0539 0,0 -0.1659,0.12642 -0.1659,0.12642 z" />
      <path
         style="fill:#000000;fill-opacity:1;stroke:none;stroke-width:1;stroke-opacity:0.417309"
         id="path3730"
         d="m 101.47683,80.68054 c 0.011,-0.0831 0.048,-0.16219 0.097,-0.22976 0.012,-0.0164 0.026,-0.0315 0.039,-0.0473 0.016,-0.0122 0.066,-0.0456 0.048,-0.0365 -0.043,0.022 -0.086,0.0452 -0.1233,0.0751 -0.014,0.0109 0.033,-0.0135 0.05,-0.0169 0.067,-0.0132 0.1024,0.0103 0.1581,0.0421 0.015,0.0132 0.033,0.0246 0.046,0.0398 0.061,0.0693 0.091,0.17076 0.1032,0.26017 0,0.0243 0,0.049 0.01,0.0735 0,0.12435 -0.032,0.24717 -0.091,0.3574 -0.041,0.0768 -0.072,0.11126 -0.1236,0.17992 0,0.005 -0.081,0.087 -0.085,0.11401 0,0.008 0.01,0.0114 0.015,0.0172 0,0 0,-0.003 0,-0.003 v 0 c 0.038,-0.0236 0.078,-0.0453 0.1144,-0.071 0.089,-0.0625 0.09,-0.0716 0.1604,-0.1487 0.052,-0.0711 0.081,-0.10528 0.1217,-0.18465 0.059,-0.11449 0.085,-0.24114 0.088,-0.36918 0,-0.0251 0,-0.0503 -0.01,-0.0751 -0.018,-0.0952 -0.058,-0.19333 -0.1263,-0.26326 -0.015,-0.0156 -0.034,-0.0276 -0.05,-0.0414 -0.042,-0.0243 -0.066,-0.0433 -0.1148,-0.0525 -0.031,-0.006 -0.079,-0.003 -0.1082,0.0122 -0.2032,0.10454 -0.1694,0.0803 -0.2713,0.16954 -0.013,0.0164 -0.026,0.0323 -0.038,0.0495 -0.049,0.0708 -0.086,0.15317 -0.093,0.23935 0,0 0.1823,-0.092 0.1823,-0.092 z" />
      <path
         style="fill:#000000;fill-opacity:1;stroke:none;stroke-width:1;stroke-opacity:0.417309"
         id="path3732"
         d="m 101.41523,80.88726 c -0.018,0.27572 -0.029,0.55184 -0.039,0.82791 -0.01,0.3126 -0.025,0.62502 -0.044,0.93718 0,0.0631 -0.01,0.12626 -0.014,0.18931 0,0.0212 0,0.0422 0,0.0634 0.054,-0.0143 0.021,-0.004 0.099,-0.0397 0,0 0,-0.003 0,-0.003 v 0 c 0.083,-0.0435 0.049,-0.0217 0.1031,-0.0608 0,-0.0217 0.01,-0.0432 0.01,-0.0652 0,-0.0624 0.01,-0.12486 0.01,-0.1873 0.014,-0.31157 0.028,-0.62317 0.038,-0.9349 0.011,-0.27729 0.021,-0.55502 0.05,-0.83114 0,0 -0.2093,0.10329 -0.2093,0.10329 z" />
      <path
         style="fill:#000000;fill-opacity:1;stroke:none;stroke-width:1;stroke-opacity:0.417309"
         id="path3788"
         d="m 103.41853,78.544 c -0.054,0.0571 -0.1314,0.11483 -0.1597,0.19053 -0.01,0.0132 0,0.0281 -0.01,0.0419 0,0.0135 -0.01,0.0265 -0.011,0.0397 0,0 0,-0.003 0,-0.003 v 0 c 0.024,-0.0217 0.048,-0.0441 0.072,-0.0654 0.093,-0.0811 0.088,-0.0692 0.172,-0.15161 0.035,-0.034 0.067,-0.0709 0.1014,-0.10501 0.01,-0.0103 0.021,-0.0201 0.032,-0.0301 0,0 -0.2045,0.0819 -0.2045,0.0819 z" />
      <path
         style="fill:#000000;fill-opacity:1;stroke:none;stroke-width:1;stroke-opacity:0.417309"
         id="path3790"
         d="m 103.77173,78.93207 c -0.032,0.0356 -0.101,0.0875 -0.1118,0.13499 0,0.0114 0.01,0.0225 0.01,0.0336 0,0 0,-0.003 0,-0.003 v 0 c 0.041,-0.0295 0.082,-0.0581 0.1227,-0.0886 0.077,-0.059 0.089,-0.0711 0.1528,-0.13147 0.012,-0.0116 0.024,-0.0233 0.037,-0.0348 0,0 -0.2145,0.0881 -0.2145,0.0881 z" />
      <path
         style="fill:#000000;fill-opacity:1;stroke:none;stroke-width:1;stroke-opacity:0.417309"
         id="path3792"
         d="m 104.43823,79.1249 c -0.1204,0.0588 -0.2403,0.1303 -0.3496,0.20428 -0.01,0.006 -0.01,0.0193 -0.016,0.0279 -0.01,0.013 -0.022,0.0241 -0.033,0.036 0,0 0,-0.003 0,-0.003 v 0 c 0.071,-0.0443 0.1544,-0.0981 0.2293,-0.13417 0.039,-0.0188 -0.075,0.043 -0.1123,0.0637 -0.032,0.0175 0.1044,-0.0618 0.094,-0.0527 0,0 0.1826,-0.14332 0.1826,-0.14332 z" />
    </g>
  </g>
</svg>
