<?xml version="1.0" encoding="UTF-8" standalone="no"?>
<svg
   xmlns:dc="http://purl.org/dc/elements/1.1/"
   xmlns:cc="http://creativecommons.org/ns#"
   xmlns:rdf="http://www.w3.org/1999/02/22-rdf-syntax-ns#"
   xmlns:svg="http://www.w3.org/2000/svg"
   xmlns="http://www.w3.org/2000/svg"
   xmlns:sodipodi="http://sodipodi.sourceforge.net/DTD/sodipodi-0.dtd"
   xmlns:inkscape="http://www.inkscape.org/namespaces/inkscape"
   width="64"
   height="64"
   viewBox="0 0 16.933333 16.933334"
   version="1.1"
   id="svg2466"
   inkscape:version="1.0.2 (e86c870879, 2021-01-15)"
   sodipodi:docname="first.svg">
  <defs
     id="defs2460" />
  <sodipodi:namedview
     id="base"
     pagecolor="#ffffff"
     bordercolor="#666666"
     borderopacity="1.0"
     inkscape:pageopacity="0.0"
     inkscape:pageshadow="2"
     inkscape:zoom="7.9195959"
     inkscape:cx="11.013002"
     inkscape:cy="37.947495"
     inkscape:document-units="mm"
     inkscape:current-layer="layer1"
     inkscape:document-rotation="0"
     showgrid="false"
     units="px"
     inkscape:window-width="2560"
     inkscape:window-height="1403"
     inkscape:window-x="1080"
     inkscape:window-y="104"
     inkscape:window-maximized="1" />
  <metadata
     id="metadata2463">
    <rdf:RDF>
      <cc:Work
         rdf:about="">
        <dc:format>image/svg+xml</dc:format>
        <dc:type
           rdf:resource="http://purl.org/dc/dcmitype/StillImage" />
        <dc:title></dc:title>
      </cc:Work>
    </rdf:RDF>
  </metadata>
  <g
     inkscape:label="Layer 1"
     inkscape:groupmode="layer"
     id="layer1">
    <g
       id="g2411"
       transform="matrix(2.5,0,0,2.5,-168.83541,-478.45684)">
      <path
         style="fill:#000000;fill-opacity:1;stroke:none;stroke-width:1;stroke-opacity:0.417309"
         id="path3686"
         d="m 73.497926,196.64191 c -0.2358,-0.19135 -0.4708,-0.38359 -0.708,-0.57306 -0.2525,-0.20331 -0.5029,-0.40929 -0.7484,-0.62095 -0.1671,-0.15068 -0.3372,-0.29792 -0.5095,-0.44268 -0.1269,-0.10382 -0.2533,-0.2083 -0.3727,-0.3208 -0.1,-0.101 -0.1216,-0.11277 -0.042,-0.23813 0.1808,-0.22402 0.4085,-0.40508 0.6321,-0.5843 0.271,-0.20815 0.5465,-0.4104 0.8199,-0.61553 0.1724,-0.12965 0.3471,-0.25617 0.5229,-0.38113 0.092,-0.0666 0.1842,-0.13304 0.2717,-0.20543 0.06,-0.0517 0.1136,-0.11088 0.1707,-0.16602 0.1406,-0.12827 0.44,-0.27019 -0.2859,0.14435 0.031,0.0369 0.037,0.25353 0.038,0.28269 0.01,0.17557 0.01,0.27336 0.01,0.4546 -0.01,0.6222 -0.022,1.24428 -0.026,1.86651 0,0.38351 0.01,0.76694 0.01,1.15043 0,0.11345 -0.01,0.22688 -0.012,0.34015 0,0.0135 -0.019,0.1529 0.011,0.17396 0.031,0.0214 0.074,0.01 0.1114,0.0148 0.023,0.007 0.046,0.0145 0.069,0.022 0,0 0.01,-0.005 0.01,-0.005 v 0 c 0.026,-0.0318 0.053,-0.0637 0.079,-0.0955 0.041,-0.0441 0.09,-0.0821 0.1232,-0.1324 0.034,-0.0521 0.032,-0.14007 0.035,-0.19801 0.01,-0.11369 0.01,-0.22749 0.01,-0.34131 -0.01,-0.38055 -0.026,-0.76079 -0.024,-1.14147 0,-0.62299 0.011,-1.24576 0.03,-1.86843 0,-0.16381 0.01,-0.30081 0,-0.46289 0,-0.0922 0,-0.22649 -0.047,-0.31168 -0.01,-0.0138 -0.022,-0.0236 -0.033,-0.0351 -0.2169,0.11483 -0.3849,0.16711 -0.5411,0.3233 -0.055,0.0556 -0.1095,0.11255 -0.1711,0.16137 -0.088,0.0697 -0.1779,0.1357 -0.2687,0.20108 -0.1725,0.12422 -0.3438,0.25016 -0.5133,0.37854 -0.2721,0.20531 -0.5478,0.40603 -0.8165,0.61582 -0.2264,0.18362 -0.4621,0.36793 -0.6348,0.60526 -0.011,0.023 -0.025,0.0448 -0.032,0.0691 -0.029,0.0938 0.035,0.16584 0.095,0.22833 0.121,0.11245 0.2493,0.21651 0.3768,0.32144 0.1744,0.14391 0.3455,0.29187 0.5199,0.43577 0.2515,0.20889 0.5056,0.41468 0.7668,0.6114 0.2444,0.18759 0.4923,0.37047 0.7403,0.55319 0,0 0.3403,-0.21465 0.3403,-0.21465 z" />
      <path
         style="fill:#000000;fill-opacity:1;stroke:none;stroke-width:1;stroke-opacity:0.417309"
         id="path3688"
         d="m 71.023926,196.52676 c -0.2133,-0.20029 -0.4242,-0.40314 -0.6323,-0.60883 -0.217,-0.21246 -0.4166,-0.44132 -0.6209,-0.66567 -0.1733,-0.18997 -0.3587,-0.36822 -0.5517,-0.53795 -0.1239,-0.10882 -0.2555,-0.2082 -0.3862,-0.30869 -0.01,-0.007 -0.019,-0.0122 -0.025,-0.0212 0,-0.003 0,-0.008 0,-0.0101 0.01,-0.006 0.02,-0.007 0.029,-0.013 0.078,-0.0464 0.151,-0.10493 0.225,-0.15685 0.2511,-0.17668 0.4812,-0.38057 0.7095,-0.58523 0.1672,-0.15015 0.3361,-0.2985 0.5085,-0.44267 0.1106,-0.0914 0.2251,-0.17812 0.3351,-0.27027 0.093,-0.078 0.1795,-0.16349 0.2642,-0.25033 0.034,-0.0259 0.057,-0.0716 0.096,-0.089 -0.1429,0.0797 -0.2919,0.14933 -0.4286,0.2391 -0.01,0.007 0.01,0.0228 0.012,0.0346 0.01,0.0254 0.011,0.051 0.015,0.0768 0.024,0.16044 0.031,0.32274 0.039,0.4845 0.022,0.51655 0.01,1.03362 -0.011,1.54999 -0.025,0.49392 -0.032,0.98813 -0.023,1.48253 0.01,0.17667 0.01,0.35463 0.024,0.53092 0.01,0.0593 0,0.17931 0.083,0.21151 0.048,0.0193 0.1024,0.005 0.1536,0.008 0,0 0.01,-0.004 0.01,-0.004 v 0 c 0.046,-0.0533 0.1014,-0.0999 0.1386,-0.15987 0.059,-0.0951 0.049,-0.17248 0.045,-0.27688 -0.01,-0.17534 -0.029,-0.3502 -0.029,-0.52591 -0.013,-0.49261 -0.01,-0.9851 0.019,-1.47731 0.018,-0.51887 0.031,-1.03801 0.017,-1.5572 -0.01,-0.16537 -0.01,-0.33221 -0.031,-0.49662 0,-0.0288 -0.01,-0.0575 -0.015,-0.0857 0,-0.0188 0,-0.0603 -0.02,-0.0545 -0.1606,0.0504 -0.3074,0.13702 -0.4612,0.20552 -0.028,0.0331 -0.061,0.0624 -0.09,0.0945 -0.084,0.0856 -0.1702,0.16841 -0.2631,0.24413 -0.1114,0.0905 -0.2246,0.1787 -0.3347,0.27078 -0.1685,0.14398 -0.3336,0.29191 -0.4984,0.44005 -0.2296,0.20492 -0.4626,0.40706 -0.7164,0.58187 -0.032,0.0228 -0.065,0.0451 -0.097,0.0683 -0.068,0.0487 -0.2138,0.13181 -0.102,0.21915 0.1333,0.0967 0.2678,0.19201 0.3921,0.30046 0.1923,0.16804 0.3769,0.34481 0.5498,0.53292 0.2072,0.22368 0.4114,0.45056 0.6312,0.66231 0.2108,0.20577 0.4235,0.40997 0.6458,0.60343 0,0 0.391,-0.24304 0.391,-0.24304 z" />
      <path
         style="fill:#000000;fill-opacity:1;stroke:none;stroke-width:1;stroke-opacity:0.417309"
         id="path3690"
         d="m 68.134426,192.57643 c 0,0.0338 -0.01,0.0675 -0.012,0.10149 -0.028,0.44117 0.019,0.88702 0.053,1.32633 0.055,0.62706 0.1175,1.25349 0.1725,1.88061 0.03,0.33017 0.05,0.66111 0.077,0.99152 0.063,0.12978 0.09,0.0941 0.2206,0.0637 0,0 0.01,-0.004 0.01,-0.004 v 0 c 0.1206,-0.0963 0.1776,-0.12581 0.2023,-0.28384 -0.029,-0.32777 -0.06,-0.65524 -0.097,-0.98221 -0.071,-0.62159 -0.1448,-1.24294 -0.1974,-1.86645 -0.036,-0.47078 -0.079,-0.9466 -0.033,-1.41809 0,0 -0.3954,0.19142 -0.3954,0.19142 z" />
      <path
         style="fill:#000000;fill-opacity:1;stroke:none;stroke-width:1;stroke-opacity:0.417309"
         id="path3825"
         d="m 69.057726,194.65298 c 0.111,-0.10572 0.2248,-0.20899 0.3302,-0.32038 0.072,-0.0982 0.026,-0.006 0.014,-0.0582 0,-0.007 0.01,-0.0143 0.01,-0.0214 0,0 -0.01,0.003 -0.01,0.003 v 0 c -0.086,0.0587 -0.178,0.10811 -0.2573,0.17611 -0.1194,0.10348 -0.231,0.21534 -0.3439,0.32594 0,0 0.2549,-0.10467 0.2549,-0.10467 z" />
      <path
         style="fill:#000000;fill-opacity:1;stroke:none;stroke-width:1;stroke-opacity:0.417309"
         id="path3827"
         d="m 69.595226,195.19025 c 0.067,-0.0601 0.1328,-0.12121 0.1968,-0.18423 0.025,-0.0251 0.069,-0.0411 0.075,-0.0762 0,-0.0198 -0.039,-0.0124 -0.058,-0.0185 0,0 -0.01,0.003 -0.01,0.003 v 0 c -0.072,0.0438 -0.1471,0.0832 -0.2164,0.13136 -0.034,0.0236 -0.062,0.055 -0.092,0.083 -0.063,0.058 -0.1248,0.11716 -0.184,0.17886 0,0 0.2842,-0.11679 0.2842,-0.11679 z" />
      <path
         style="fill:#000000;fill-opacity:1;stroke:none;stroke-width:1;stroke-opacity:0.417309"
         id="path3829"
         d="m 70.106726,195.75476 c 0.043,-0.0424 0.054,-0.0517 0.098,-0.0994 0.018,-0.0201 0.05,-0.0341 0.055,-0.061 0,-0.0148 -0.027,-0.014 -0.04,-0.0212 0,-0.013 0.01,-0.0259 0.014,-0.0391 0,0 -0.01,0.003 -0.01,0.003 v 0 c -0.1443,0.11129 -0.06,0.0506 -0.2551,0.17712 -0.025,0.0188 -0.045,0.0439 -0.067,0.0661 -0.032,0.0324 -0.061,0.0624 -0.093,0.095 0,0 0.2946,-0.12028 0.2946,-0.12028 z" />
      <path
         style="fill:#000000;fill-opacity:1;stroke:none;stroke-width:1;stroke-opacity:0.417309"
         id="path3831"
         d="m 71.436926,194.86317 c 0.089,-0.0817 0.1788,-0.16415 0.2607,-0.25321 0.092,-0.10035 0.086,-0.0573 0.07,-0.14676 0,0 -0.01,0.003 -0.01,0.003 v 0 c -0.07,0.0475 -0.1421,0.0917 -0.2096,0.14243 -0.1469,0.11009 -0.269,0.24947 -0.4055,0.37126 0,0 0.29,-0.11623 0.29,-0.11623 z" />
      <path
         style="fill:#000000;fill-opacity:1;stroke:none;stroke-width:1;stroke-opacity:0.417309"
         id="path3833"
         d="m 71.921726,195.36283 c 0.04,-0.0369 0.108,-0.0986 0.1417,-0.13258 0.028,-0.0285 0.067,-0.051 0.082,-0.0883 0.01,-0.0159 -0.019,-0.0282 -0.029,-0.0423 0,0 -0.01,0.003 -0.01,0.003 v 0 c -0.076,0.0493 -0.1542,0.0947 -0.2272,0.14793 -0.089,0.0649 -0.1612,0.15028 -0.2393,0.22696 0,0 0.2778,-0.11419 0.2778,-0.11419 z" />
      <path
         style="fill:#000000;fill-opacity:1;stroke:none;stroke-width:1;stroke-opacity:0.417309"
         id="path3835"
         d="m 72.597526,195.93629 c 0.1119,-0.10694 0.2229,-0.21598 0.3243,-0.33311 0.081,-0.0937 0.067,-0.0541 0.078,-0.14033 0.01,-0.0169 0.018,-0.0337 0.028,-0.0505 0,0 -0.01,0.003 -0.01,0.003 v 0 c -0.034,0.027 -0.067,0.0541 -0.1011,0.0811 -0.052,0.0383 -0.106,0.0741 -0.1562,0.11478 -0.042,0.0335 -0.08,0.0709 -0.1184,0.10742 -0.117,0.1101 -0.2252,0.22908 -0.3435,0.3379 0,0 0.2958,-0.1198 0.2958,-0.1198 z" />
    </g>
  </g>
</svg>
