<?xml version="1.0" encoding="UTF-8" standalone="no"?>
<svg
   xmlns:dc="http://purl.org/dc/elements/1.1/"
   xmlns:cc="http://creativecommons.org/ns#"
   xmlns:rdf="http://www.w3.org/1999/02/22-rdf-syntax-ns#"
   xmlns:svg="http://www.w3.org/2000/svg"
   xmlns="http://www.w3.org/2000/svg"
   xmlns:sodipodi="http://sodipodi.sourceforge.net/DTD/sodipodi-0.dtd"
   xmlns:inkscape="http://www.inkscape.org/namespaces/inkscape"
   width="64"
   height="64"
   viewBox="0 0 16.933333 16.933334"
   version="1.1"
   id="svg2466"
   inkscape:version="1.0.2 (e86c870879, 2021-01-15)"
   sodipodi:docname="last.svg">
  <defs
     id="defs2460" />
  <sodipodi:namedview
     id="base"
     pagecolor="#ffffff"
     bordercolor="#666666"
     borderopacity="1.0"
     inkscape:pageopacity="0.0"
     inkscape:pageshadow="2"
     inkscape:zoom="7.9195959"
     inkscape:cx="11.013002"
     inkscape:cy="37.947495"
     inkscape:document-units="mm"
     inkscape:current-layer="layer1"
     inkscape:document-rotation="0"
     showgrid="false"
     units="px"
     inkscape:window-width="2560"
     inkscape:window-height="1403"
     inkscape:window-x="1080"
     inkscape:window-y="104"
     inkscape:window-maximized="1" />
  <metadata
     id="metadata2463">
    <rdf:RDF>
      <cc:Work
         rdf:about="">
        <dc:format>image/svg+xml</dc:format>
        <dc:type
           rdf:resource="http://purl.org/dc/dcmitype/StillImage" />
        <dc:title></dc:title>
      </cc:Work>
    </rdf:RDF>
  </metadata>
  <g
     inkscape:label="Layer 1"
     inkscape:groupmode="layer"
     id="layer1">
    <g
       id="g2458"
       transform="matrix(2.5,0,0,2.5,-289.63266,-478.01745)">
      <path
         style="fill:#000000;fill-opacity:1;stroke:none;stroke-width:1;stroke-opacity:0.417309"
         id="path3692"
         d="m 116.75343,196.33468 c 0.068,-0.33391 0.1212,-0.67059 0.1769,-1.00672 0.062,-0.34882 0.1118,-0.69945 0.1508,-1.05153 0.029,-0.25289 0.043,-0.50718 0.055,-0.76137 0.012,-0.19383 0.01,-0.38788 0,-0.58184 0,-0.11351 -0.01,-0.22675 -0.025,-0.33936 0,-0.0322 -0.032,-0.10244 -0.019,-0.13036 -0.1334,0.086 -0.2768,0.15825 -0.4003,0.2581 -0.013,0.0109 0.024,0.0241 0.035,0.0371 0.018,0.0206 0.034,0.042 0.05,0.0637 0.079,0.10535 0.1491,0.21666 0.2208,0.32673 0.1937,0.30753 0.3937,0.61074 0.61,0.90284 0.1646,0.22064 0.3467,0.42733 0.5342,0.62854 0.076,0.0807 0.153,0.16055 0.2369,0.23305 0.029,0.0251 0.061,0.0462 0.094,0.0668 0.01,0.003 0.046,0.0308 0.026,0.013 -0.01,0 -0.012,-0.003 -0.017,0 -0.036,0.0146 -0.1111,0.0791 -0.1413,0.10039 -0.1498,0.1057 -0.032,0.0222 -0.1946,0.13792 -0.2335,0.17378 -0.461,0.35523 -0.6951,0.52817 -0.2062,0.15184 -0.4171,0.29707 -0.6301,0.43915 -0.083,0.0675 -0.1167,0.0775 0.029,0.0413 0,0 0.01,-0.004 0.01,-0.004 v 0 c 0.1422,-0.0654 0.2861,-0.12774 0.4164,-0.21572 0.2112,-0.14258 0.4207,-0.28778 0.6253,-0.43973 0.2339,-0.17413 0.4613,-0.35666 0.6973,-0.5279 0.066,-0.0468 0.1333,-0.0931 0.1995,-0.14018 0.04,-0.0281 0.1185,-0.0708 0.142,-0.11866 0,-0.009 0,-0.0204 0,-0.0305 -0.011,-0.0295 -0.025,-0.0412 -0.053,-0.0537 -0.032,-0.0164 -0.062,-0.0364 -0.091,-0.0584 -0.086,-0.0682 -0.1637,-0.14595 -0.2408,-0.22395 -0.1916,-0.19568 -0.3752,-0.39944 -0.5413,-0.61743 -0.2175,-0.28993 -0.4197,-0.59042 -0.609,-0.8995 -0.071,-0.11208 -0.1401,-0.22535 -0.2158,-0.33415 -0.016,-0.023 -0.033,-0.046 -0.05,-0.0683 -0.012,-0.0159 -0.02,-0.0528 -0.039,-0.046 -0.1569,0.0563 -0.2991,0.14719 -0.4487,0.22077 0,0.0472 0.012,0.0942 0.019,0.14111 0.015,0.11022 0.023,0.22121 0.028,0.33242 0.01,0.19105 0.01,0.38227 0,0.57348 -0.01,0.25133 -0.018,0.50221 -0.044,0.75237 -0.033,0.34624 -0.072,0.69175 -0.1241,1.03571 -0.048,0.3306 -0.1016,0.66051 -0.1472,0.9915 0,0 0.3571,-0.17436 0.3571,-0.17436 z" />
      <path
         style="fill:#000000;fill-opacity:1;stroke:none;stroke-width:1;stroke-opacity:0.417309"
         id="path3694"
         d="m 119.39983,196.44908 c 0.025,-0.31583 0.085,-0.6273 0.1487,-0.93707 0.074,-0.34192 0.1461,-0.68456 0.2025,-1.02997 0.036,-0.23223 0.057,-0.46633 0.064,-0.7012 0,-0.20167 0,-0.40333 0,-0.605 0,-0.13716 0,-0.27435 -0.01,-0.4114 0,-0.0699 -0.021,-0.14282 -0.01,-0.21214 0.1701,0.0159 -0.024,-0.005 -0.391,0.23976 -0.01,0.005 0.018,0.008 0.025,0.0138 0.016,0.0132 0.031,0.0285 0.046,0.0435 0.044,0.0442 0.076,0.0835 0.1174,0.13078 0.1693,0.20704 0.3231,0.42617 0.4842,0.63955 0.1617,0.21291 0.3388,0.41326 0.5218,0.60788 0.1273,0.13722 0.2693,0.25903 0.4179,0.37225 0.096,0.0697 0.1968,0.13136 0.29,0.20449 0.031,0.0279 0.081,0.04 0.043,0.0827 -0.027,0.0302 -0.054,0.0596 -0.082,0.0895 -0.1573,0.17404 -0.3242,0.33867 -0.4947,0.49961 -0.2104,0.20151 -0.4361,0.38566 -0.6624,0.56872 -0.2021,0.16357 -0.4039,0.32756 -0.6048,0.49258 0,0 -0.1414,0.117 -0.1474,0.12316 -0.01,0.0103 -0.034,0.0276 -0.023,0.0368 0.017,0.014 0.044,-0.003 0.065,-0.003 0.012,0 0.024,0.004 0.036,0.006 0,0 0.01,-0.004 0.01,-0.004 v 0 c 0.089,-0.0535 0.182,-0.10147 0.2712,-0.15531 0.082,-0.0493 0.096,-0.0665 0.1644,-0.12351 0.026,-0.0214 0.051,-0.0427 0.077,-0.064 0.1996,-0.16471 0.4004,-0.32793 0.6014,-0.49083 0.2263,-0.18418 0.4511,-0.37036 0.6619,-0.57251 0.1719,-0.16353 0.3407,-0.33038 0.4993,-0.50694 0.084,-0.10252 0.1261,-0.15891 0,-0.24635 -0.1002,-0.0636 -0.1962,-0.13319 -0.2935,-0.2009 -0.1503,-0.10816 -0.2924,-0.22696 -0.421,-0.36055 -0.1846,-0.19105 -0.3616,-0.38965 -0.5236,-0.60044 -0.1626,-0.21344 -0.3168,-0.4331 -0.4837,-0.64326 -0.089,-0.10469 -0.5876,-0.73869 -0.6391,0.0355 0,0.0723 0.01,0.14446 0.011,0.21669 0.01,0.13544 0.01,0.27107 0.014,0.40653 0.01,0.19905 0.012,0.39809 0.012,0.59725 0,0.22928 -0.011,0.45868 -0.046,0.68572 -0.051,0.34078 -0.1133,0.67974 -0.1812,1.01758 -0.061,0.31041 -0.1269,0.6227 -0.137,0.93975 0,0 0.3605,-0.18309 0.3605,-0.18309 z" />
      <path
         style="fill:#000000;fill-opacity:1;stroke:none;stroke-width:1;stroke-opacity:0.417309"
         id="path3696"
         d="m 121.68673,192.62403 c -0.046,0.30596 -0.046,0.61674 -0.054,0.9254 -0.01,0.46853 -0.035,0.93655 -0.056,1.40462 -0.022,0.41445 -0.022,0.82952 -0.012,1.24429 0,0.10313 0.01,0.20624 0.01,0.30935 0,0.0434 0,0.0873 0,0.13028 0.01,0.0335 0.01,0.074 0.031,0.0967 0.029,0.0259 0.075,0.0193 0.1116,0.0325 0.023,0.008 0.045,0.0212 0.067,0.032 0,0 0.01,-0.005 0.01,-0.005 v 0 c 0.025,-0.0351 0.051,-0.0704 0.077,-0.10522 0.037,-0.0495 0.084,-0.0925 0.1119,-0.14769 0.037,-0.0739 0.023,-0.17817 0.02,-0.25514 -0.01,-0.23035 0,-0.0622 -0.012,-0.30734 -0.012,-0.41275 -0.014,-0.82568 0.01,-1.23822 0.02,-0.46702 0.044,-0.93396 0.047,-1.4015 0,-0.30509 0,-0.61198 0.048,-0.91451 0,0 -0.4082,0.19905 -0.4082,0.19905 z" />
      <path
         style="fill:#000000;fill-opacity:1;stroke:none;stroke-width:1;stroke-opacity:0.417309"
         id="path3896"
         d="m 117.36583,195.86906 c -0.038,-0.052 -0.067,-0.11128 -0.1091,-0.16105 -0.017,-0.0206 -0.032,-0.0458 -0.056,-0.0575 -0.033,-0.0159 -0.071,-0.013 -0.1066,-0.0214 -0.027,-0.007 -0.054,-0.0159 -0.08,-0.0241 0,0 -0.01,0.003 -0.01,0.003 v 0 c -0.01,0.0272 -0.012,0.0547 -0.019,0.0816 -0.01,0.0344 -0.031,0.0666 -0.032,0.10234 0,0.0266 0.015,0.0512 0.026,0.0755 0.027,0.0597 0.068,0.11229 0.1025,0.16745 0,0 0.2812,-0.16629 0.2812,-0.16629 z" />
      <path
         style="fill:#000000;fill-opacity:1;stroke:none;stroke-width:1;stroke-opacity:0.417309"
         id="path3898"
         d="m 117.91403,195.44705 c -0.034,-0.11734 -0.097,-0.1407 -0.2008,-0.19023 0,0 -0.01,0.003 -0.01,0.003 v 0 c -0.033,0.10523 -0.066,0.20939 -0.051,0.3212 0,0 0.258,-0.13417 0.258,-0.13417 z" />
      <path
         style="fill:#000000;fill-opacity:1;stroke:none;stroke-width:1;stroke-opacity:0.417309"
         id="path3900"
         d="m 118.41773,195.13587 c -0.012,-0.0185 -0.051,-0.0822 -0.071,-0.0882 -0.045,-0.0132 -0.095,-0.005 -0.1419,-0.007 0,0 -0.01,0.003 -0.01,0.003 v 0 c -0.021,0.0421 -0.053,0.0803 -0.064,0.12626 -0.01,0.022 0.033,0.0847 0.044,0.10446 0,0 0.2385,-0.13894 0.2385,-0.13894 z" />
      <path
         style="fill:#000000;fill-opacity:1;stroke:none;stroke-width:1;stroke-opacity:0.417309"
         id="path3902"
         d="m 119.97893,196.28739 c -0.032,-0.0329 -0.031,-0.091 -0.064,-0.12276 -0.06,-0.0566 -0.1342,-0.0573 -0.2095,-0.0715 0,0 -0.01,0.003 -0.01,0.003 v 0 c -0.033,0.0747 -0.078,0.1428 -0.067,0.22916 0.01,0.046 0.054,0.079 0.062,0.12422 0,0 0.2842,-0.16238 0.2842,-0.16238 z" />
      <path
         style="fill:#000000;fill-opacity:1;stroke:none;stroke-width:1;stroke-opacity:0.417309"
         id="path3904"
         d="m 120.59053,195.65999 c -0.047,-0.068 -0.095,-0.18841 -0.1656,-0.23082 -0.1468,-0.0524 -0.081,-0.0196 -0.1998,-0.0934 0,0 -0.01,0.003 -0.01,0.003 v 0 c 0,0.0339 0,0.068 0,0.10163 -0.01,0.0416 -0.025,0.081 -0.026,0.12292 0,0.0852 0.076,0.19029 0.1194,0.26149 0,0 0.28,-0.16513 0.28,-0.16513 z" />
      <path
         style="fill:#000000;fill-opacity:1;stroke:none;stroke-width:1;stroke-opacity:0.417309"
         id="path3906"
         d="m 121.28063,195.12889 c -0.1307,-0.1171 -0.045,-0.0665 -0.2782,-0.10618 0,0 -0.01,0.003 -0.01,0.003 v 0 c -0.048,0.20818 -0.065,0.11994 0,0.26948 0,0 0.281,-0.16666 0.281,-0.16666 z" />
    </g>
  </g>
</svg>
