<?xml version="1.0" encoding="UTF-8" standalone="no"?>
<svg
   xmlns:dc="http://purl.org/dc/elements/1.1/"
   xmlns:cc="http://creativecommons.org/ns#"
   xmlns:rdf="http://www.w3.org/1999/02/22-rdf-syntax-ns#"
   xmlns:svg="http://www.w3.org/2000/svg"
   xmlns="http://www.w3.org/2000/svg"
   xmlns:sodipodi="http://sodipodi.sourceforge.net/DTD/sodipodi-0.dtd"
   xmlns:inkscape="http://www.inkscape.org/namespaces/inkscape"
   width="64"
   height="64"
   viewBox="0 0 16.933333 16.933334"
   version="1.1"
   id="svg2466"
   inkscape:version="1.0.2 (e86c870879, 2021-01-15)"
   sodipodi:docname="new.svg">
  <defs
     id="defs2460" />
  <sodipodi:namedview
     id="base"
     pagecolor="#ffffff"
     bordercolor="#666666"
     borderopacity="1.0"
     inkscape:pageopacity="0.0"
     inkscape:pageshadow="2"
     inkscape:zoom="7.9195959"
     inkscape:cx="20.925124"
     inkscape:cy="37.947495"
     inkscape:document-units="mm"
     inkscape:current-layer="layer1"
     inkscape:document-rotation="0"
     showgrid="false"
     units="px"
     inkscape:window-width="2560"
     inkscape:window-height="1403"
     inkscape:window-x="1080"
     inkscape:window-y="104"
     inkscape:window-maximized="1" />
  <metadata
     id="metadata2463">
    <rdf:RDF>
      <cc:Work
         rdf:about="">
        <dc:format>image/svg+xml</dc:format>
        <dc:type
           rdf:resource="http://purl.org/dc/dcmitype/StillImage" />
        <dc:title></dc:title>
      </cc:Work>
    </rdf:RDF>
  </metadata>
  <g
     inkscape:label="Layer 1"
     inkscape:groupmode="layer"
     id="layer1">
    <g
       id="g2344"
       transform="matrix(2.5,0,0,2.5,-168.85106,-193.27713)">
      <path
         style="fill:#000000;fill-opacity:1;stroke:none;stroke-width:1;stroke-opacity:0.417309"
         id="path3642"
         d="m 68.855526,83.12653 c -0.012,-0.19116 -0.013,-0.38266 -0.012,-0.57414 0,-0.19661 0,-0.39317 0.01,-0.58957 0.01,-0.21813 0.02,-0.43609 0.034,-0.65395 0.014,-0.20516 0.026,-0.41042 0.043,-0.61542 0.016,-0.21929 0.049,-0.43688 0.067,-0.65603 0.01,-0.17434 0.01,-0.34902 0.013,-0.52353 0,-0.17672 0,-0.35338 0,-0.53007 0,-0.13528 0.01,-0.27059 0.01,-0.40592 10e-5,-0.10642 0,-0.21281 0,-0.31922 0,-0.0688 0,-0.13761 -0.01,-0.20641 0,-0.0395 0,-0.0786 0.01,-0.11694 0.01,-0.0283 0.029,-0.045 0.054,-0.0589 0.01,-0.005 0.038,-0.0193 0.029,-0.0138 -0.083,0.0496 -0.1663,0.0977 -0.2495,0.1465 0.093,-0.0399 0.1932,-0.0549 0.2925,-0.069 0.1301,-0.0172 0.2611,-0.0265 0.392,-0.0352 0.162,-0.0127 0.3243,-0.0209 0.4865,-0.0302 0.1962,-0.0138 0.3919,-0.0337 0.5879,-0.0511 0.1172,-0.009 0.2344,-0.0241 0.3522,-0.0196 0.08,0.003 0.1498,0.032 0.2167,0.0735 0.1216,0.0906 0.2255,0.2027 0.331,0.31099 0.1393,0.13941 0.2875,0.26927 0.4356,0.39905 0.1236,0.10511 0.2451,0.21251 0.3648,0.32202 0.087,0.0844 0.1829,0.16055 0.2585,0.25548 0.072,0.0765 0.1101,0.16984 0.1424,0.26792 0.049,0.17989 0.063,0.36721 0.077,0.55253 0.015,0.21391 0.01,0.42828 0.01,0.64243 -0.01,0.25413 0.017,0.50763 0.043,0.76007 0.027,0.24358 0.044,0.48792 0.061,0.73231 0.011,0.16341 0.024,0.32663 0.034,0.49012 0.01,0.15147 0.01,0.30342 -0.012,0.45389 -0.023,0.15412 -0.085,0.29324 -0.1699,0.42238 -0.039,0.0548 -0.088,0.0996 -0.1451,0.13531 -0.017,0.0108 -0.071,0.04 -0.054,0.0295 0.3767,-0.2249 0.5018,-0.26424 0.2973,-0.19183 -0.1508,0.0424 -0.3073,0.0525 -0.4631,0.0511 -0.1728,-0.008 -0.3444,-0.0313 -0.5165,-0.0469 -0.1841,-0.0159 -0.3687,-0.0257 -0.5532,-0.0362 -0.1788,-0.0106 -0.3575,-0.0241 -0.5364,-0.0347 -0.1282,-0.009 -0.2564,-0.0159 -0.385,-0.0164 -0.1092,0 -0.2185,0.003 -0.3278,-1.6e-4 -0.091,-0.003 -0.1813,-0.004 -0.272,-0.007 -0.078,-0.003 -0.1569,-0.008 -0.2351,-0.0159 -0.055,-0.006 -0.1104,-0.0138 -0.1643,-0.0273 -0.046,-0.0114 -0.088,-0.0312 -0.1298,-0.0528 -0.041,-0.0222 -0.082,-0.0443 -0.1231,-0.0664 -0.035,-0.0177 -0.067,-0.039 -0.098,-0.0628 -0.026,-0.0206 -0.047,-0.0465 -0.066,-0.0733 -0.017,-0.0212 -0.027,-0.0454 -0.036,-0.0709 -0.079,0 -0.1555,0.0469 -0.2244,0.0772 0,0 -0.01,0.005 -0.01,0.005 v 0 c -0.071,0.0456 -0.1557,0.0865 -0.2038,0.15941 0.011,0.0299 0.023,0.0587 0.043,0.0836 0.022,0.0303 0.045,0.0597 0.074,0.0844 0.032,0.0267 0.066,0.051 0.1033,0.0704 0.041,0.0222 0.083,0.0436 0.1236,0.0663 0.044,0.0238 0.088,0.0476 0.1357,0.0618 0.056,0.0167 0.1124,0.0278 0.1702,0.0335 0.079,0.009 0.1585,0.014 0.2379,0.018 0.091,0.003 0.1821,0.005 0.2732,0.007 0.1097,0.003 0.2194,0.003 0.3291,0 0.1286,0 0.257,0.004 0.3853,0.0127 0.1793,0.009 0.3584,0.0217 0.5376,0.0339 0.1841,0.0101 0.3683,0.0199 0.5522,0.0348 0.1726,0.0153 0.3445,0.0381 0.5174,0.0504 0.1583,0.006 0.3168,-0.003 0.4718,-0.0382 0.2479,-0.0626 0.069,-0.0106 0.553,-0.28745 0.076,-0.0433 0.1355,-0.10837 0.18,-0.18272 0.071,-0.13348 0.1221,-0.27641 0.1349,-0.42799 0.013,-0.15253 0.014,-0.3053 0,-0.45804 -0.011,-0.16307 -0.024,-0.32586 -0.038,-0.48869 -0.019,-0.24397 -0.038,-0.48805 -0.066,-0.73125 -0.026,-0.25072 -0.051,-0.50224 -0.041,-0.75473 0,-0.21481 0.01,-0.42989 -0.012,-0.64413 -0.016,-0.18806 -0.029,-0.37893 -0.086,-0.55991 -0.038,-0.10808 -0.081,-0.20262 -0.1792,-0.26884 -0.097,-0.0758 -0.1814,-0.16698 -0.2752,-0.24699 -0.1215,-0.10872 -0.245,-0.215 -0.3699,-0.31985 -0.1494,-0.1274 -0.2975,-0.25652 -0.437,-0.39487 -0.1097,-0.10834 -0.2167,-0.22037 -0.3379,-0.31602 -0.072,-0.0484 -0.1489,-0.0834 -0.2379,-0.0839 -0.1241,0.003 -0.2475,0.0188 -0.3712,0.0292 -0.1984,0.0204 -0.3967,0.0431 -0.5956,0.0583 -0.1621,0.01 -0.3243,0.0167 -0.4862,0.0296 -0.1306,0.009 -0.2615,0.0159 -0.3914,0.0321 -0.1,0.0124 -0.2005,0.0259 -0.2959,0.0596 -0.1058,0.0589 -0.212,0.11707 -0.3173,0.17684 -0.039,0.0222 -0.066,0.0556 -0.076,0.0999 -0.01,0.0414 -0.01,0.0834 -0.01,0.12551 0,0.0679 0.01,0.13576 0.011,0.20365 0,0.10401 0.012,0.20805 0.01,0.31221 0,0.13473 0,0.2694 -0.01,0.4041 0,0.17613 0,0.35227 0,0.52843 0,0.17272 0,0.34546 -0.01,0.51813 -0.01,0.21455 -0.019,0.42905 -0.041,0.64265 -0.017,0.20333 -0.026,0.40703 -0.032,0.61095 -0.01,0.21471 -0.013,0.42952 -0.014,0.64434 0,0.19589 -0.01,0.39182 0,0.58777 0,0.19092 0.011,0.38179 0.017,0.57269 0,0 0.2036,-0.10504 0.2036,-0.10504 z" />
      <path
         style="fill:#000000;fill-opacity:1;stroke:none;stroke-width:1;stroke-opacity:0.417309"
         id="path3644"
         d="m 71.109126,78.12048 c 0,0.24416 -0.013,0.488 -0.025,0.73179 0,0.18193 -0.024,0.36893 0.01,0.54951 0.01,0.0296 0.015,0.0583 0.022,0.0874 0.089,0.23974 0.2584,0.29041 0.4915,0.33181 0.1803,0.0167 0.3617,0.0363 0.543,0.037 0.1146,0 0.1747,-0.006 0.2883,-0.0148 0.065,-0.0209 0.131,-0.0417 0.1965,-0.0625 0,0 0.01,-0.006 0.01,-0.006 v 0 c 0.01,-0.0295 0.011,-0.059 0.016,-0.0885 -0.026,-0.0116 -0.051,-0.0259 -0.078,-0.0353 -0.2044,-0.0705 -0.4276,-0.0382 -0.6385,-0.0663 -0.1669,-0.022 -0.3625,-0.046 -0.469,-0.1964 -0.016,-0.0222 -0.024,-0.0491 -0.037,-0.0737 -0.054,-0.20159 -0.047,-0.41053 -0.047,-0.6178 0,-0.23974 0,-0.47961 0,-0.71922 0,0 -0.2774,0.14259 -0.2774,0.14259 z" />
      <path
         style="fill:#000000;fill-opacity:1;stroke:none;stroke-width:1;stroke-opacity:0.417309"
         id="path3819"
         d="m 71.582626,78.29863 c -0.056,0.0652 -0.1168,0.12763 -0.1584,0.20336 -0.01,0.0167 -0.02,0.0334 -0.023,0.0523 0,0.0114 0.01,0.0217 0.011,0.0324 0,0 0,-0.003 0,-0.003 v 0 c 0.033,-0.0265 0.067,-0.0517 0.099,-0.0796 0.098,-0.0859 0.1808,-0.18729 0.2618,-0.289 0,0 -0.1949,0.0824 -0.1949,0.0824 z" />
      <path
         style="fill:#000000;fill-opacity:1;stroke:none;stroke-width:1;stroke-opacity:0.417309"
         id="path3821"
         d="m 71.904626,78.75387 c -0.042,0.0692 -0.095,0.13721 -0.1108,0.21878 0,0.022 -2e-4,0.0447 -3e-4,0.067 0,0 0,-0.003 0,-0.003 v 0 c 0.04,-0.0397 0.081,-0.0781 0.1191,-0.11924 0.074,-0.0799 0.1407,-0.16648 0.2004,-0.25792 0,0 -0.2128,0.0932 -0.2128,0.0932 z" />
      <path
         style="fill:#000000;fill-opacity:1;stroke:none;stroke-width:1;stroke-opacity:0.417309"
         id="path3823"
         d="m 72.427526,79.09987 c -0.044,0.0546 -0.086,0.11131 -0.129,0.16742 -0.036,0.0475 -0.087,0.10594 -0.1069,0.1651 -0.01,0.019 0,0.0403 0,0.0605 0,0 0,-0.003 0,-0.003 v 0 c 0.047,-0.0395 0.095,-0.0771 0.1404,-0.11851 0.037,-0.0336 0.071,-0.0692 0.1047,-0.10621 0.025,-0.028 0.047,-0.0587 0.07,-0.0883 0.043,-0.0553 0.087,-0.11067 0.1289,-0.16724 0,0 -0.2079,0.0891 -0.2079,0.0891 z" />
    </g>
  </g>
</svg>
