<?xml version="1.0" encoding="UTF-8" standalone="no"?>
<svg
   xmlns:dc="http://purl.org/dc/elements/1.1/"
   xmlns:cc="http://creativecommons.org/ns#"
   xmlns:rdf="http://www.w3.org/1999/02/22-rdf-syntax-ns#"
   xmlns:svg="http://www.w3.org/2000/svg"
   xmlns="http://www.w3.org/2000/svg"
   xmlns:sodipodi="http://sodipodi.sourceforge.net/DTD/sodipodi-0.dtd"
   xmlns:inkscape="http://www.inkscape.org/namespaces/inkscape"
   width="64"
   height="64"
   viewBox="0 0 16.933333 16.933334"
   version="1.1"
   id="svg2466"
   inkscape:version="1.0.2 (e86c870879, 2021-01-15)"
   sodipodi:docname="next.svg">
  <defs
     id="defs2460" />
  <sodipodi:namedview
     id="base"
     pagecolor="#ffffff"
     bordercolor="#666666"
     borderopacity="1.0"
     inkscape:pageopacity="0.0"
     inkscape:pageshadow="2"
     inkscape:zoom="7.9195959"
     inkscape:cx="11.013002"
     inkscape:cy="37.947495"
     inkscape:document-units="mm"
     inkscape:current-layer="layer1"
     inkscape:document-rotation="0"
     showgrid="false"
     units="px"
     inkscape:window-width="2560"
     inkscape:window-height="1403"
     inkscape:window-x="1080"
     inkscape:window-y="104"
     inkscape:window-maximized="1" />
  <metadata
     id="metadata2463">
    <rdf:RDF>
      <cc:Work
         rdf:about="">
        <dc:format>image/svg+xml</dc:format>
        <dc:type
           rdf:resource="http://purl.org/dc/dcmitype/StillImage" />
        <dc:title></dc:title>
      </cc:Work>
    </rdf:RDF>
  </metadata>
  <g
     inkscape:label="Layer 1"
     inkscape:groupmode="layer"
     id="layer1">
    <g
       id="g2447"
       transform="matrix(2.5,0,0,2.5,-258.69891,-478.26954)">
      <path
         style="fill:#000000;fill-opacity:1;stroke:none;stroke-width:1;stroke-opacity:0.417309"
         id="path3678"
         d="m 105.54043,196.97801 c 0.037,-0.34197 0.078,-0.68352 0.1169,-1.02529 0.064,-0.48678 0.1362,-0.97224 0.1919,-1.46002 0.044,-0.38269 0.077,-0.76666 0.1,-1.15118 0.012,-0.24796 0.024,-0.49601 0.031,-0.74416 0,-0.15904 0.012,-0.3179 0.02,-0.47676 0.01,-0.0625 0,-0.12702 0.01,-0.1892 0,-0.003 0,-0.007 0.01,-0.008 0,-2.4e-4 0.017,0.004 0.013,0.007 -0.128,0.0865 -0.2718,0.15039 -0.391,0.24866 -0.015,0.0122 0.028,0.0257 0.041,0.0398 0.039,0.0426 0.063,0.0782 0.097,0.12528 0.1287,0.19019 0.2418,0.39018 0.3653,0.58373 0.1416,0.21349 0.2993,0.41566 0.4637,0.61195 0.1655,0.20421 0.3615,0.37889 0.5656,0.5433 0.1627,0.1253 0.3305,0.24371 0.494,0.36798 0.088,0.0661 0.1712,0.13885 0.2482,0.21767 0.014,0.0251 0.078,0.061 0.066,0.0947 -0.061,0.0905 -0.1325,0.17301 -0.2053,0.25397 -0.1587,0.16735 -0.3278,0.32433 -0.4963,0.4817 -0.1852,0.17209 -0.3728,0.34163 -0.556,0.51591 -0.1701,0.16404 -0.3425,0.32578 -0.5181,0.48395 -0.1134,0.10221 -0.2312,0.19934 -0.3507,0.29443 -0.072,0.0581 -0.1451,0.11573 -0.2198,0.17071 0.047,-0.0401 -0.039,0.0249 -0.027,0.0238 0.011,0 0.022,-0.006 0.033,-0.01 0.052,-0.019 0.1026,-0.0398 0.1539,-0.0596 0,0 -0.01,0.006 -0.01,0.006 v 0 c 0.1031,-0.0421 0.2186,-0.0776 0.3104,-0.14475 0.073,-0.0558 0.1447,-0.11338 0.2162,-0.17106 0.1176,-0.0954 0.2336,-0.19293 0.3452,-0.29533 0.1738,-0.15867 0.3446,-0.32043 0.5143,-0.48347 0.1846,-0.17338 0.3718,-0.34385 0.5573,-0.51623 0.1694,-0.15888 0.34,-0.31702 0.4981,-0.48731 0.067,-0.0767 0.1833,-0.18732 0.1966,-0.29239 -0.011,-0.0536 -0.049,-0.0876 -0.088,-0.1243 -0.081,-0.0785 -0.1653,-0.15414 -0.2575,-0.21997 -0.1654,-0.12213 -0.335,-0.23863 -0.4983,-0.36367 -0.204,-0.15992 -0.3989,-0.33163 -0.5636,-0.53306 -0.1628,-0.195 -0.3202,-0.39486 -0.4608,-0.60661 -0.1245,-0.19399 -0.2392,-0.39391 -0.3642,-0.58759 -0.01,-0.014 -0.1321,-0.18203 -0.1442,-0.17859 -0.5197,0.14793 -0.4545,0.0292 -0.4686,0.22566 0,0.0635 -0.01,0.12706 -0.01,0.19066 0,0.15682 0,0.31367 -0.01,0.47051 0,0.24254 0.01,0.48519 0,0.72768 -0.012,0.37756 -0.033,0.7547 -0.065,1.13115 -0.043,0.47654 -0.087,0.953 -0.1303,1.42944 -0.032,0.33861 -0.059,0.67776 -0.099,1.01563 0,0 0.2703,-0.13372 0.2703,-0.13372 z" />
      <path
         style="fill:#000000;fill-opacity:1;stroke:none;stroke-width:1;stroke-opacity:0.417309"
         id="path3680"
         d="m 108.04763,192.34976 c -0.06,0.32882 -0.08,0.66328 -0.1013,0.99634 -0.03,0.48546 -0.038,0.97187 -0.048,1.45804 -0.015,0.46485 -0.01,0.92983 0.01,1.39451 0.014,0.34454 0.037,0.68869 0.065,1.03238 0.014,0.0804 -0.01,0.22424 0.11,0.23699 0.046,0.005 0.091,-0.0103 0.1365,-0.0156 0,0 0.01,-0.005 0.01,-0.005 v 0 c 0.077,-0.0746 0.1503,-0.12192 0.1814,-0.22739 0.014,-0.0455 0,-0.17235 -0.01,-0.21349 -0.033,-0.34139 -0.056,-0.6836 -0.072,-1.02624 -0.02,-0.46236 -0.026,-0.92496 -0.014,-1.38766 0.01,-0.48503 0.019,-0.97025 0.046,-1.45468 0.021,-0.33068 0.038,-0.66386 0.1059,-0.98898 0,0 -0.4189,0.20044 -0.4189,0.20044 z" />
      <path
         style="fill:#000000;fill-opacity:1;stroke:none;stroke-width:1;stroke-opacity:0.417309"
         id="path3890"
         d="m 106.20003,196.59405 c -0.022,-0.061 -0.035,-0.0946 -0.058,-0.15875 -0.03,-0.0827 -0.036,-0.14029 -0.1172,-0.19286 -0.039,-0.0251 -0.087,-0.0317 -0.131,-0.0475 0,0 -0.01,0.003 -0.01,0.003 v 0 c -0.021,0.0514 -0.05,0.10018 -0.062,0.15434 -0.024,0.10757 0,0.14361 0.036,0.23812 0.037,0.10435 0.025,0.0698 0.057,0.15965 0,0 0.2812,-0.15621 0.2812,-0.15621 z" />
      <path
         style="fill:#000000;fill-opacity:1;stroke:none;stroke-width:1;stroke-opacity:0.417309"
         id="path3892"
         d="m 106.83383,196.09353 c -0.01,-0.009 -0.072,-0.10953 -0.073,-0.11025 -0.058,-0.045 -0.1705,-0.0708 -0.2356,-0.0903 0,0 -0.01,0.003 -0.01,0.003 v 0 c -0.016,0.0684 -0.051,0.17349 -0.033,0.2485 0,0.008 0.07,0.0947 0.08,0.10734 0,0 0.2674,-0.15856 0.2674,-0.15856 z" />
      <path
         style="fill:#000000;fill-opacity:1;stroke:none;stroke-width:1;stroke-opacity:0.417309"
         id="path3894"
         d="m 107.61693,195.35069 c -0.038,-0.12843 -0.054,-0.19439 -0.1697,-0.28186 -0.044,-0.0336 -0.097,-0.0553 -0.1447,-0.0829 0,0 -0.01,0.003 -0.01,0.003 v 0 c -0.011,0.0607 -0.028,0.12057 -0.032,0.182 -0.01,0.15132 0.021,0.20395 0.088,0.32703 0,0 0.2637,-0.14745 0.2637,-0.14745 z" />
    </g>
  </g>
</svg>
