<?xml version="1.0" encoding="UTF-8" standalone="no"?>
<svg
   xmlns:dc="http://purl.org/dc/elements/1.1/"
   xmlns:cc="http://creativecommons.org/ns#"
   xmlns:rdf="http://www.w3.org/1999/02/22-rdf-syntax-ns#"
   xmlns:svg="http://www.w3.org/2000/svg"
   xmlns="http://www.w3.org/2000/svg"
   xmlns:sodipodi="http://sodipodi.sourceforge.net/DTD/sodipodi-0.dtd"
   xmlns:inkscape="http://www.inkscape.org/namespaces/inkscape"
   width="64"
   height="64"
   viewBox="0 0 16.933333 16.933334"
   version="1.1"
   id="svg2466"
   inkscape:version="1.0.2 (e86c870879, 2021-01-15)"
   sodipodi:docname="open.svg">
  <defs
     id="defs2460" />
  <sodipodi:namedview
     id="base"
     pagecolor="#ffffff"
     bordercolor="#666666"
     borderopacity="1.0"
     inkscape:pageopacity="0.0"
     inkscape:pageshadow="2"
     inkscape:zoom="7.9195959"
     inkscape:cx="11.013002"
     inkscape:cy="37.947495"
     inkscape:document-units="mm"
     inkscape:current-layer="layer1"
     inkscape:document-rotation="0"
     showgrid="false"
     units="px"
     inkscape:window-width="2560"
     inkscape:window-height="1403"
     inkscape:window-x="1080"
     inkscape:window-y="104"
     inkscape:window-maximized="1" />
  <metadata
     id="metadata2463">
    <rdf:RDF>
      <cc:Work
         rdf:about="">
        <dc:format>image/svg+xml</dc:format>
        <dc:type
           rdf:resource="http://purl.org/dc/dcmitype/StillImage" />
        <dc:title></dc:title>
      </cc:Work>
    </rdf:RDF>
  </metadata>
  <g
     inkscape:label="Layer 1"
     inkscape:groupmode="layer"
     id="layer1">
    <g
       id="g2354"
       transform="matrix(2.4,0,0,2.4,-187.31893,-185.12527)">
      <path
         id="path3646"
         style="fill:#000000;fill-opacity:1;stroke:none;stroke-width:1;stroke-opacity:0.417309"
         d="m 79.223259,78.481084 c -0.292391,0.01191 -0.377428,0.08827 -0.676434,0.284242 -0.064,0.05908 -0.09866,0.134038 -0.11938,0.218572 -0.03,0.111178 -0.05617,0.223758 -0.08215,0.335915 -0.02802,0.117528 -0.05011,0.236088 -0.06511,0.35605 -0.02011,0.145918 -0.03283,0.292179 -0.04082,0.439235 -0.01402,0.18333 -0.03,0.366686 -0.04599,0.54983 -0.01508,0.18714 -0.02593,0.374465 -0.02688,0.56224 0,0.183198 0.01217,0.366078 0.03307,0.548296 0.02011,0.196003 0.04479,0.391319 0.0708,0.586528 l 0.04082,-0.0217 c 0.0077,0.01482 0.01455,0.02982 0.02276,0.04442 0.03,0.05551 0.0617,0.11094 0.104907,0.15711 0.01905,0.01746 0.04027,0.03225 0.06305,0.04392 0.0254,-0.05419 0.05292,-0.10832 0.07596,-0.154517 0.05294,-0.106442 0.116681,-0.205687 0.185499,-0.301254 -0.01667,-0.03138 -0.03196,-0.06302 -0.04598,-0.09562 -0.03157,0.0029 -0.06578,0.01773 -0.09922,0.03307 -0.0172,-0.162613 -0.02789,-0.325702 -0.03773,-0.488844 -0.01085,-0.184124 -0.01614,-0.368512 -0.01614,-0.552953 0,-0.186637 0.01296,-0.372824 0.02895,-0.558615 0.01693,-0.184044 0.03564,-0.368221 0.05064,-0.552423 0.01111,-0.14785 0.03019,-0.294693 0.05218,-0.441325 0.01693,-0.118349 0.04212,-0.235189 0.06511,-0.352425 0.02302,-0.110781 0.04702,-0.221668 0.07699,-0.33073 0.0037,-0.01482 0.01164,-0.02567 0.01667,-0.03926 0.0026,-1.32e-4 0.0034,0 0.005,0 0.138906,-0.0061 0.277468,0.0069 0.415475,0.0217 0.111707,0.01349 0.223255,0.02889 0.334857,0.04292 0.09199,0.01191 0.184282,0.02011 0.276992,0.02593 0.07901,0.0029 0.157559,0.0032 0.236167,0.0082 0.093,0.005 0.180896,0.0326 0.265086,0.07131 0.124698,0.06339 0.228653,0.157613 0.331258,0.251143 0.093,0.08771 0.184653,0.17743 0.282655,0.259927 0.07702,0.07041 0.167852,0.118215 0.266144,0.151421 0.112607,0.03241 0.229923,0.0367 0.346234,0.0403 0.124486,0.0029 0.248708,0.0037 0.373089,0.0098 0.111019,0.005 0.222329,0.01323 0.333322,0.01958 0.098,0.0069 0.196136,0.0029 0.294031,-0.0063 0.093,-0.0079 0.184706,-0.02249 0.276993,-0.03307 0.07001,-0.01138 0.130651,0.0029 0.189653,0.03979 0.102897,0.0858 0.155628,0.21373 0.195342,0.337978 0.01005,0.03887 0.01508,0.07861 0.02328,0.117819 0.09975,-0.0027 0.201189,0.02011 0.303848,0.04495 0.05823,0.01402 0.118533,0.029 0.176212,0.04911 -0.01984,-0.149463 -0.04344,-0.298529 -0.07956,-0.444949 -0.04101,-0.13642 -0.09874,-0.271331 -0.207751,-0.36793 -0.06599,-0.0472 -0.136313,-0.07543 -0.219101,-0.06252 -0.093,0.01217 -0.185976,0.02691 -0.279585,0.0372 -0.097,0.01032 -0.193728,0.01826 -0.290936,0.01191 -0.111787,-0.005 -0.223573,-0.01296 -0.335386,-0.01852 -0.125174,-0.0061 -0.250481,-0.0087 -0.375682,-0.0098 -0.113295,-0.0029 -0.226854,-0.0061 -0.337952,-0.03048 -0.09602,-0.02672 -0.185288,-0.06964 -0.264584,-0.13126 -0.100012,-0.08001 -0.191822,-0.16764 -0.284215,-0.255799 -0.105622,-0.09631 -0.212222,-0.194098 -0.339513,-0.261488 -0.08702,-0.04321 -0.177112,-0.07617 -0.274426,-0.08528 -0.07599,-0.0079 -0.152823,-0.01164 -0.22942,-0.01455 -0.093,-0.004 -0.184891,-0.01111 -0.276993,-0.02223 -0.1134,-0.0127 -0.22643,-0.029 -0.340042,-0.0403 -0.140388,-0.01296 -0.281093,-0.0254 -0.422196,-0.02593 z m -0.594281,0.321442 c -0.160258,0.09091 -0.09091,0.0409 0,0 z m 0,3.370342 v 0.0027 c -5.2e-5,0 2.7e-5,0 0,0 z" />
      <path
         style="fill:#000000;fill-opacity:1;stroke:none;stroke-width:1;stroke-opacity:0.417309"
         id="path3648"
         d="m 78.837526,82.11418 c 0.1035,-0.28 0.222,-0.55411 0.3494,-0.82393 0.1136,-0.22982 0.2354,-0.45543 0.3598,-0.67951 0.056,-0.0888 0.099,-0.18923 0.1686,-0.26876 0.09,-0.0677 0.098,-0.0725 -0.226,0.13113 -0.01,0.006 0.022,-0.01 0.033,-0.0124 0.067,-0.0164 0.1403,-0.014 0.2084,-0.0159 0.2547,-0.007 0.5069,-0.045 0.7588,-0.0806 0.2376,-0.0393 0.4774,-0.0492 0.7176,-0.0433 0.2158,0.0135 0.4315,0.023 0.6478,0.0228 0.2309,-0.003 0.4617,-0.0127 0.6925,-0.0185 0.1948,-0.007 0.3895,-0.005 0.584,0.006 0.1818,0.0127 0.3629,0.0343 0.543,0.0619 0.1414,0.0217 0.281,0.0523 0.4194,0.0879 0.1055,0.0279 0.2101,0.0593 0.3155,0.0879 0.051,0.0159 0.108,0.0204 0.1507,0.0542 0.04,0.0753 -0.039,0.24257 -0.066,0.31337 -0.095,0.23593 -0.2056,0.4644 -0.3235,0.68937 -0.1009,0.19519 -0.218,0.38108 -0.3413,0.56272 -0.071,0.098 -0.1339,0.2032 -0.2233,0.28567 -0.1204,0.0773 -0.429,0.27472 0.3296,-0.191 0.02,-0.0124 -0.042,0.0206 -0.064,0.0292 -0.024,0.009 -0.048,0.0172 -0.072,0.0246 -0.082,0.0246 -0.1049,0.0259 -0.1957,0.0426 -0.2488,0.0374 -0.5007,0.0465 -0.7519,0.0543 -0.2047,0.007 -0.4094,-5e-5 -0.614,-0.007 -0.1828,-0.0103 -0.3655,0 -0.5481,0.009 -0.2153,0.0108 -0.4309,0.0106 -0.6464,0.0167 -0.2597,0.007 -0.5192,0.0169 -0.7781,0.0398 -0.1785,0.018 -0.3563,0.0426 -0.5352,0.0572 -0.1184,0.0111 -0.2363,0 -0.3529,-0.0201 -0.1104,-0.0212 -0.2189,-0.0509 -0.3285,-0.0754 -0.076,-0.007 -0.1794,-0.0501 -0.2549,-0.0369 -0.026,0.005 -0.051,0.0156 -0.077,0.0233 -0.056,0.0326 -0.112,0.0653 -0.1679,0.0979 0,0 -0.01,0.006 -0.01,0.006 v 0 c -0.043,0.0367 -0.086,0.0735 -0.1291,0.11023 0,0.0119 -0.013,0.0254 -0.01,0.0357 0.015,0.0254 0.2011,0.0308 0.2368,0.0462 0.1105,0.0233 0.2195,0.0529 0.3299,0.0766 0.1189,0.0225 0.2396,0.0389 0.361,0.0298 0.1813,-0.0138 0.3611,-0.0401 0.5417,-0.061 0.2575,-0.0254 0.5158,-0.0359 0.7745,-0.041 0.2153,-0.006 0.4307,-0.006 0.6459,-0.0154 0.1816,-0.008 0.3633,-0.0198 0.5451,-0.0116 0.206,0.006 0.412,0.0156 0.618,0.008 0.2522,-0.008 0.5049,-0.0175 0.7554,-0.049 0.3184,-0.0449 0.6024,-0.15771 0.8504,-0.38822 0.081,-0.0893 0.145,-0.19187 0.2128,-0.29133 0.1202,-0.18267 0.2345,-0.36933 0.3328,-0.56491 0.1154,-0.22659 0.2233,-0.45702 0.318,-0.69313 0.04,-0.10957 0.1086,-0.25339 0.03,-0.36084 -0.05,-0.0414 -0.115,-0.0446 -0.1757,-0.0613 -0.1065,-0.0274 -0.2126,-0.0563 -0.3186,-0.086 -0.1393,-0.0363 -0.2798,-0.0689 -0.422,-0.0917 -0.1828,-0.0278 -0.3664,-0.0487 -0.5508,-0.0615 -0.2017,-0.0116 -0.4034,-0.007 -0.6051,0.004 -0.2375,0.0127 -0.4748,0.0279 -0.7126,0.0346 -0.2237,0.005 -0.4472,0.006 -0.6707,-0.004 -0.2468,-0.005 -0.4935,0.007 -0.737,0.0501 -0.2576,0.0406 -0.5155,0.0828 -0.7762,0.0973 -0.2276,0.0175 -0.3762,-0.005 -0.5627,0.21037 -0.062,0.0857 -0.1104,0.1805 -0.1627,0.27215 -0.118,0.22018 -0.2313,0.44291 -0.3349,0.67029 -0.1256,0.27319 -0.2424,0.5501 -0.3551,0.82886 0,0 0.2642,-0.12271 0.2642,-0.12271 z" />
      <path
         style="fill:#000000;fill-opacity:1;stroke:none;stroke-width:1;stroke-opacity:0.417309"
         id="path3807"
         d="m 78.997126,82.42375 c 0.096,-0.18233 0.1978,-0.36156 0.2894,-0.5461 0.077,-0.15481 0.072,-0.0903 0.048,-0.21868 0,0 0,0.003 0,0.003 v 0 c -0.047,0.0509 -0.098,0.0976 -0.1398,0.15277 -0.033,0.0445 -0.056,0.096 -0.083,0.14463 -0.099,0.1792 -0.1925,0.36205 -0.2849,0.54488 0,0 0.1747,-0.0794 0.1747,-0.0794 z" />
      <path
         style="fill:#000000;fill-opacity:1;stroke:none;stroke-width:1;stroke-opacity:0.417309"
         id="path3809"
         d="m 79.796026,82.49846 c 0.01,-0.0273 0.019,-0.0547 0.029,-0.0818 0.014,-0.0373 0.028,-0.0745 0.042,-0.1116 0.037,-0.0955 0.067,-0.15182 0.082,-0.25323 0.054,-0.35441 -0.052,0.13787 0.025,-0.19992 0,0 0,0.003 0,0.003 v 0 c -0.255,0.45173 0.1723,-0.29834 -0.1653,0.26477 -0.028,0.0473 -0.054,0.0963 -0.077,0.14637 -0.019,0.0417 -0.034,0.0855 -0.05,0.12832 -0.044,0.11343 -0.036,0.0938 -0.071,0.19524 0,0 0.1906,-0.0901 0.1906,-0.0901 z" />
      <path
         style="fill:#000000;fill-opacity:1;stroke:none;stroke-width:1;stroke-opacity:0.417309"
         id="path3811"
         d="m 80.645626,82.53387 c 0.07,-0.12637 0.1466,-0.249 0.2235,-0.37124 0.028,-0.0449 0.068,-0.0842 0.085,-0.13457 0.01,-0.0291 -0.01,-0.0611 -0.01,-0.0916 0,0 0,0.003 0,0.003 v 0 c -0.06,0.0581 -0.1247,0.11099 -0.1787,0.1743 -0.034,0.0403 -0.057,0.0895 -0.085,0.13449 -0.073,0.11835 -0.1507,0.23651 -0.2044,0.36555 0,0 0.1724,-0.0788 0.1724,-0.0788 z" />
      <path
         style="fill:#000000;fill-opacity:1;stroke:none;stroke-width:1;stroke-opacity:0.417309"
         id="path3813"
         d="m 81.337126,82.54411 c 0.054,-0.11552 0.1273,-0.22048 0.1877,-0.33232 0.02,-0.0371 0.041,-0.0741 0.056,-0.11364 0.011,-0.0297 0.014,-0.0618 0.021,-0.0928 0.012,-0.0297 0.024,-0.0594 0.036,-0.0891 0,0 0,0.003 0,0.003 v 0 c -0.029,0.0371 -0.058,0.0742 -0.086,0.11136 -0.04,0.0454 -0.082,0.089 -0.1189,0.13631 -0.065,0.0817 -0.1101,0.15838 -0.1622,0.24742 -0.031,0.0529 -0.064,0.11231 -0.091,0.16824 -0.01,0.0153 -0.014,0.0315 -0.02,0.0473 0,0 0.183,-0.0847 0.183,-0.0847 z" />
      <path
         style="fill:#000000;fill-opacity:1;stroke:none;stroke-width:1;stroke-opacity:0.417309"
         id="path3815"
         d="m 82.384526,82.48989 c 0.018,-0.0227 0.036,-0.0452 0.053,-0.0684 0.051,-0.0697 0.099,-0.1411 0.148,-0.21201 0.028,-0.0399 0.056,-0.0795 0.082,-0.12025 0.023,-0.0355 0.048,-0.0701 0.065,-0.10845 0.012,-0.0254 0.014,-0.0538 0.022,-0.0807 0.01,-0.0243 0.02,-0.0489 0.031,-0.0733 0,0 0,0.003 0,0.003 v 0 c -0.029,0.0327 -0.058,0.0655 -0.088,0.0982 -0.039,0.0409 -0.081,0.0797 -0.118,0.12269 -0.053,0.0614 -0.1284,0.17327 -0.1743,0.24032 -0.01,0.008 -0.1286,0.1891 -0.1413,0.20928 -0.012,0.0196 -0.023,0.0404 -0.034,0.0606 0,0 0.1591,-0.0697 0.1591,-0.0697 z" />
      <path
         style="fill:#000000;fill-opacity:1;stroke:none;stroke-width:1;stroke-opacity:0.417309"
         id="path3817"
         d="m 83.167626,82.44698 c 0.011,-0.0222 0.024,-0.0439 0.034,-0.0663 0.014,-0.0287 0.027,-0.058 0.041,-0.0868 0.049,-0.10084 0.1063,-0.20379 0.1216,-0.31676 0,-0.0265 0,-0.0532 0,-0.0797 0,0 0,0.003 0,0.003 v 0 c -0.034,0.0422 -0.07,0.083 -0.1025,0.12655 -0.061,0.0818 -0.1107,0.16206 -0.1581,0.25197 -0.018,0.0341 -0.033,0.0695 -0.05,0.1044 -0.014,0.0289 -0.028,0.0574 -0.04,0.0868 -0.01,0.0204 -0.015,0.0416 -0.023,0.0624 0,0 0.1819,-0.0846 0.1819,-0.0846 z" />
    </g>
  </g>
</svg>
