<?xml version="1.0" encoding="UTF-8" standalone="no"?>
<svg
   xmlns:dc="http://purl.org/dc/elements/1.1/"
   xmlns:cc="http://creativecommons.org/ns#"
   xmlns:rdf="http://www.w3.org/1999/02/22-rdf-syntax-ns#"
   xmlns:svg="http://www.w3.org/2000/svg"
   xmlns="http://www.w3.org/2000/svg"
   xmlns:sodipodi="http://sodipodi.sourceforge.net/DTD/sodipodi-0.dtd"
   xmlns:inkscape="http://www.inkscape.org/namespaces/inkscape"
   width="64"
   height="64"
   viewBox="0 0 16.933333 16.933334"
   version="1.1"
   id="svg2466"
   inkscape:version="1.0.2 (e86c870879, 2021-01-15)"
   sodipodi:docname="previous.svg">
  <defs
     id="defs2460" />
  <sodipodi:namedview
     id="base"
     pagecolor="#ffffff"
     bordercolor="#666666"
     borderopacity="1.0"
     inkscape:pageopacity="0.0"
     inkscape:pageshadow="2"
     inkscape:zoom="7.9195959"
     inkscape:cx="11.013002"
     inkscape:cy="37.947495"
     inkscape:document-units="mm"
     inkscape:current-layer="layer1"
     inkscape:document-rotation="0"
     showgrid="false"
     units="px"
     inkscape:window-width="2560"
     inkscape:window-height="1403"
     inkscape:window-x="1080"
     inkscape:window-y="104"
     inkscape:window-maximized="1" />
  <metadata
     id="metadata2463">
    <rdf:RDF>
      <cc:Work
         rdf:about="">
        <dc:format>image/svg+xml</dc:format>
        <dc:type
           rdf:resource="http://purl.org/dc/dcmitype/StillImage" />
        <dc:title></dc:title>
      </cc:Work>
    </rdf:RDF>
  </metadata>
  <g
     inkscape:label="Layer 1"
     inkscape:groupmode="layer"
     id="layer1">
    <g
       id="g2418"
       transform="matrix(2.5,0,0,2.5,-200.06829,-478.67779)">
      <path
         style="fill:#000000;fill-opacity:1;stroke:none;stroke-width:1;stroke-opacity:0.417309"
         id="path3682"
         d="m 84.851326,196.91594 c -0.1595,-0.16518 -0.3317,-0.31737 -0.5052,-0.46763 -0.1537,-0.1371 -0.3137,-0.26667 -0.4729,-0.39737 -0.1609,-0.13669 -0.317,-0.2788 -0.4764,-0.4173 -0.1447,-0.12452 -0.2893,-0.24916 -0.4302,-0.37801 -0.1362,-0.12407 -0.2652,-0.25551 -0.3862,-0.39445 -0.077,-0.0917 -0.1536,-0.18584 -0.1958,-0.29908 -0.01,-0.0301 -0.013,-0.0493 0,-0.0801 0.026,-0.0866 0.1032,-0.15621 0.1637,-0.21786 0.1744,-0.15518 0.3584,-0.29924 0.5361,-0.45066 0.1749,-0.14693 0.3435,-0.30057 0.5029,-0.46419 0.129,-0.13345 0.2488,-0.27535 0.3743,-0.41198 0.1057,-0.11332 0.2194,-0.21881 0.3328,-0.32425 0.061,-0.053 0.1164,-0.11231 0.1833,-0.15772 0.1586,-0.0907 0.025,-0.0143 -0.3815,0.22204 -0.01,0.004 0.012,-0.007 0.019,-0.0109 0.016,-0.009 0.033,-0.0156 0.051,-0.0217 0.042,-0.0111 0.082,0.0103 0.1192,0.0273 0.054,0.0188 0.077,0.0564 0.1003,0.10697 0.08,0.2246 0.1066,0.46384 0.1378,0.69892 0.046,0.36915 0.088,0.73875 0.1304,1.10826 0.036,0.327 0.074,0.65376 0.1193,0.9796 0.032,0.21291 0.06,0.42648 0.062,0.64193 0,0.17007 -0.024,0.33869 -0.061,0.50445 -0.038,0.1641 -0.097,0.32203 -0.1759,0.4704 -0.026,0.0758 -0.032,0.0453 0.066,0.0414 0.015,0 0.031,0 0.046,0 0,0 0.01,-0.004 0.01,-0.004 v 0 c 0.039,-0.0238 0.078,-0.0468 0.1171,-0.0713 0.175,-0.11063 0.1196,-0.056 0.2103,-0.16992 0.075,-0.15351 0.133,-0.31454 0.1696,-0.48159 0.035,-0.16942 0.055,-0.34134 0.056,-0.51454 -0.01,-0.2164 -0.039,-0.43037 -0.071,-0.64421 -0.047,-0.32446 -0.087,-0.64995 -0.1237,-0.97581 -0.043,-0.37007 -0.086,-0.74012 -0.128,-1.11024 -0.03,-0.24135 -0.057,-0.48615 -0.133,-0.71811 -0.026,-0.0591 -0.053,-0.11416 -0.1164,-0.13925 -0.044,-0.0198 -0.088,-0.0442 -0.1358,-0.0515 -0.027,0 -0.057,0.006 -0.081,0.0193 -0.4338,0.24834 -0.3098,0.15716 -0.4683,0.2754 -0.061,0.0512 -0.119,0.10684 -0.1776,0.16116 -0.1122,0.10621 -0.2248,0.21228 -0.3286,0.32671 -0.1239,0.13703 -0.2442,0.27744 -0.3734,0.4096 -0.1595,0.16113 -0.328,0.31253 -0.5012,0.45868 -0.1803,0.15177 -0.368,0.29533 -0.5388,0.45773 -0.089,0.0988 -0.1857,0.20841 -0.1397,0.35002 0.047,0.11734 0.1259,0.21651 0.208,0.31184 0.123,0.13964 0.2531,0.27249 0.3906,0.39804 0.1407,0.12977 0.2852,0.25529 0.4311,0.37912 0.1604,0.13798 0.3177,0.27929 0.4768,0.41857 0.1609,0.13195 0.3275,0.25641 0.4911,0.38502 0.1783,0.14862 0.3524,0.302 0.5312,0.44987 0,0 0.3708,-0.22984 0.3708,-0.22984 z" />
      <path
         style="fill:#000000;fill-opacity:1;stroke:none;stroke-width:1;stroke-opacity:0.417309"
         id="path3684"
         d="m 81.563226,192.34621 c -0.025,0.35423 0.01,0.70882 0.036,1.06167 0.052,0.46421 0.094,0.92909 0.1231,1.39531 0.022,0.46416 0.044,0.92834 0.065,1.39255 0.015,0.35219 0.028,0.70446 0.028,1.05699 0,0.0434 -0.031,0.30694 0.04,0.31183 0.051,0.003 0.1007,-0.0191 0.151,-0.0284 0,0 0.01,-0.005 0.01,-0.005 v 0 c 0.056,-0.0433 0.1175,-0.0801 0.1675,-0.12999 0.096,-0.0957 0.061,-0.25117 0.065,-0.36994 -0.01,-0.34854 -0.036,-0.69617 -0.056,-1.04415 -0.026,-0.46305 -0.047,-0.92631 -0.072,-1.38938 -0.033,-0.46456 -0.082,-0.92723 -0.1359,-1.38973 -0.032,-0.3511 -0.062,-0.70532 -0.024,-1.05724 0,0 -0.3944,0.19491 -0.3944,0.19491 z" />
      <path
         style="fill:#000000;fill-opacity:1;stroke:none;stroke-width:1;stroke-opacity:0.417309"
         id="path3837"
         d="m 82.499826,194.81975 c 0.079,-0.0608 0.1541,-0.10327 0.206,-0.19256 0.01,-0.0172 0.015,-0.0364 0.023,-0.0546 0,0 -0.01,0.003 -0.01,0.003 v 0 c -0.095,0.0615 -0.268,0.17081 -0.362,0.23825 -0.034,0.0243 -0.065,0.0525 -0.098,0.0783 -0.02,0.0159 -0.041,0.0308 -0.061,0.0462 0,0 0.2989,-0.11805 0.2989,-0.11805 z" />
      <path
         style="fill:#000000;fill-opacity:1;stroke:none;stroke-width:1;stroke-opacity:0.417309"
         id="path3839"
         d="m 83.091526,195.52928 c 0.061,-0.0762 0.1416,-0.13517 0.2006,-0.21277 0.013,-0.0167 0.096,-0.18153 0.1077,-0.20405 0,0 -0.01,0.003 -0.01,0.003 v 0 c -0.063,0.0522 -0.1268,0.10436 -0.1901,0.15653 -0.067,0.0555 -0.1381,0.10761 -0.2026,0.16661 -0.052,0.0479 -0.1357,0.14838 -0.1865,0.2081 0,0 0.277,-0.11695 0.277,-0.11695 z" />
      <path
         style="fill:#000000;fill-opacity:1;stroke:none;stroke-width:1;stroke-opacity:0.417309"
         id="path3841"
         d="m 84.368426,196.30695 c 0.081,-0.10078 0.1657,-0.1982 0.2506,-0.29552 0.016,-0.0177 0.1437,-0.14975 0.151,-0.19912 0,-0.0164 -0.022,-0.0249 -0.033,-0.0373 0,0 -0.01,0.003 -0.01,0.003 v 0 c -0.059,0.0421 -0.121,0.0809 -0.1778,0.12618 -0.1056,0.0842 -0.1415,0.13303 -0.2276,0.23164 -0.087,0.0993 -0.1737,0.19823 -0.2576,0.29991 0,0 0.3004,-0.12832 0.3004,-0.12832 z" />
    </g>
  </g>
</svg>
