<?xml version="1.0" encoding="UTF-8" standalone="no"?>
<svg
   xmlns:dc="http://purl.org/dc/elements/1.1/"
   xmlns:cc="http://creativecommons.org/ns#"
   xmlns:rdf="http://www.w3.org/1999/02/22-rdf-syntax-ns#"
   xmlns:svg="http://www.w3.org/2000/svg"
   xmlns="http://www.w3.org/2000/svg"
   xmlns:sodipodi="http://sodipodi.sourceforge.net/DTD/sodipodi-0.dtd"
   xmlns:inkscape="http://www.inkscape.org/namespaces/inkscape"
   width="64"
   height="64"
   viewBox="0 0 16.933333 16.933334"
   version="1.1"
   id="svg2466"
   inkscape:version="1.0.2 (e86c870879, 2021-01-15)"
   sodipodi:docname="save.svg">
  <defs
     id="defs2460" />
  <sodipodi:namedview
     id="base"
     pagecolor="#ffffff"
     bordercolor="#666666"
     borderopacity="1.0"
     inkscape:pageopacity="0.0"
     inkscape:pageshadow="2"
     inkscape:zoom="7.9195959"
     inkscape:cx="11.013002"
     inkscape:cy="37.947495"
     inkscape:document-units="mm"
     inkscape:current-layer="layer1"
     inkscape:document-rotation="0"
     showgrid="false"
     units="px"
     inkscape:window-width="2560"
     inkscape:window-height="1403"
     inkscape:window-x="1080"
     inkscape:window-y="104"
     inkscape:window-maximized="1" />
  <metadata
     id="metadata2463">
    <rdf:RDF>
      <cc:Work
         rdf:about="">
        <dc:format>image/svg+xml</dc:format>
        <dc:type
           rdf:resource="http://purl.org/dc/dcmitype/StillImage" />
        <dc:title></dc:title>
      </cc:Work>
    </rdf:RDF>
  </metadata>
  <g
     inkscape:label="Layer 1"
     inkscape:groupmode="layer"
     id="layer1">
    <g
       id="g2364"
       transform="matrix(2.5,0,0,2.5,-223.49691,-193.04922)">
      <path
         style="fill:#000000;fill-opacity:1;stroke:none;stroke-width:1;stroke-opacity:0.417309"
         id="path3650"
         d="m 90.517726,82.85068 c 0,-0.23109 0,-0.46215 0.016,-0.69295 0.013,-0.27289 0.031,-0.54543 0.054,-0.81764 0.016,-0.23701 0.034,-0.47379 0.052,-0.71064 0.014,-0.20378 0.033,-0.4072 0.044,-0.61116 0,-0.16783 0.015,-0.33536 0.015,-0.50327 0,-0.12843 -0.01,-0.2568 -0.012,-0.38512 -0.01,-0.11602 -0.01,-0.23218 -0.01,-0.3483 0,-0.0922 0,-0.18439 0,-0.2766 0,-0.0703 0,-0.14076 0,-0.21113 0,-0.0426 0,-0.0833 0.027,-0.11838 0,-0.005 0.01,-0.0103 0.014,-0.0151 0.016,-0.0151 0.1201,-0.0781 0.068,-0.0477 -0.3609,0.21108 -0.4786,0.2668 -0.324,0.1923 0.077,-0.0328 0.1608,-0.0341 0.2433,-0.0302 0.1102,0.009 0.2193,0.0282 0.3287,0.0442 0.1416,0.0225 0.2839,0.0398 0.427,0.0492 0.1596,0.007 0.3196,0.003 0.4792,-0.003 0.1416,-0.004 0.2831,-0.01 0.4245,-0.0161 0.116,-0.005 0.232,-0.01 0.3481,-0.0127 0.1002,-0.003 0.2004,0 0.3004,0.007 0.085,0.006 0.1693,0.0114 0.2539,0.0177 0.071,0.006 0.1424,0.0145 0.2134,0.0241 0.051,0.004 0.094,0.0235 0.1353,0.0527 0.063,0.0497 0.1196,0.10763 0.1749,0.166 0.09,0.0992 0.1739,0.20304 0.2598,0.30554 0.092,0.11504 0.1934,0.22156 0.2994,0.32353 0.081,0.0781 0.167,0.14992 0.2494,0.22604 0.056,0.0528 0.1111,0.10723 0.1646,0.16285 0.048,0.0463 0.07,0.10702 0.088,0.1697 0.032,0.13555 0.043,0.2749 0.048,0.41376 0,0.16663 -0.01,0.33287 -0.026,0.49858 -0.017,0.15489 -0.034,0.30972 -0.045,0.46514 -0.013,0.17174 -0.017,0.34395 -0.026,0.51593 -0.01,0.18032 -0.025,0.36015 -0.039,0.54015 -0.01,0.13563 -0.018,0.27138 -0.027,0.40706 -0.01,0.10573 -0.012,0.21167 -0.028,0.31644 -0.01,0.0486 -0.026,0.0833 -0.07,0.10684 -0.011,0.006 -0.045,0.0228 -0.034,0.0161 0.1273,-0.0762 0.256,-0.15033 0.384,-0.2255 -0.1459,0.0569 -0.3051,0.0625 -0.4597,0.0694 -0.1855,0.005 -0.3711,-0.003 -0.5565,-0.009 -0.1862,-0.008 -0.3724,-0.0185 -0.5586,-0.0279 -0.1812,-0.0106 -0.3626,-0.0143 -0.5441,-0.0116 -0.1925,0.005 -0.3851,0.008 -0.5776,0.008 -0.1639,-0.003 -0.3278,-0.005 -0.4916,-0.007 -0.1288,0 -0.2576,-0.003 -0.3862,-0.01 -0.098,-0.004 -0.1958,-0.0188 -0.2926,-0.036 -0.036,0.003 -0.1365,-0.0365 -0.1669,-0.0314 -0.075,0.0124 -0.2156,0.10427 -0.2512,0.12403 0,0 -0.01,0.006 -0.01,0.006 v 0 c -0.045,0.04 -0.093,0.0764 -0.1346,0.11996 -0.01,0.009 -0.019,0.0243 -0.013,0.0355 0,0.003 0.1525,0.0254 0.1679,0.0303 0.098,0.0185 0.1968,0.0363 0.2969,0.0407 0.1297,0.007 0.2595,0.0103 0.3894,0.0101 0.1646,0 0.3292,0.004 0.4938,0.006 0.1928,0 0.3855,-0.003 0.5782,-0.008 0.1806,-0.003 0.3611,0 0.5414,0.01 0.1866,0.01 0.3732,0.0183 0.5597,0.0277 0.186,0.008 0.3722,0.0148 0.5584,0.0122 0.1562,-0.005 0.3148,-0.009 0.4663,-0.0515 0.1559,-0.0872 0.3128,-0.17272 0.4677,-0.26172 0.059,-0.0338 0.077,-0.0994 0.082,-0.1624 0,-0.10417 0.01,-0.20826 0.016,-0.31226 0.01,-0.13486 0.015,-0.26988 0.024,-0.40471 0.014,-0.18021 0.028,-0.36036 0.037,-0.54084 0.01,-0.17131 0.013,-0.34276 0.025,-0.51384 0.013,-0.15505 0.031,-0.30959 0.045,-0.46453 0.013,-0.16706 0.026,-0.33454 0.02,-0.50229 -0.01,-0.14245 -0.018,-0.28548 -0.052,-0.42428 -0.02,-0.0699 -0.046,-0.1383 -0.1,-0.18987 -0.056,-0.0544 -0.1124,-0.10869 -0.169,-0.16253 -0.083,-0.0759 -0.1697,-0.14724 -0.2524,-0.22323 -0.106,-0.0998 -0.2081,-0.20376 -0.2998,-0.31708 -0.086,-0.10371 -0.171,-0.20756 -0.2597,-0.30861 -0.056,-0.0614 -0.1145,-0.12107 -0.1791,-0.17364 -0.045,-0.0341 -0.093,-0.0641 -0.1506,-0.0697 -0.072,-0.0101 -0.1431,-0.0188 -0.2149,-0.0259 -0.085,-0.008 -0.1698,-0.013 -0.2548,-0.0185 -0.1017,-0.006 -0.2036,-0.0119 -0.3055,-0.008 -0.1167,0.003 -0.2333,0.007 -0.3498,0.0127 -0.1423,0.006 -0.2845,0.0135 -0.4269,0.0185 -0.1593,0.005 -0.3188,0.0109 -0.4782,0.006 -0.1422,-0.007 -0.2835,-0.0236 -0.4241,-0.0462 -0.1098,-0.0172 -0.2195,-0.0347 -0.3298,-0.0482 -0.085,-0.007 -0.1714,-0.0108 -0.2544,0.0132 -0.1825,0.0628 -0.045,0.013 -0.4481,0.25003 -0.033,0.0193 -0.058,0.0519 -0.076,0.0841 -0.017,0.0447 -0.021,0.0914 -0.021,0.13914 0,0.0699 0,0.13983 0,0.20968 0,0.091 0.01,0.18206 0.01,0.27313 0.01,0.11486 0.013,0.22956 0.018,0.34441 0.01,0.12682 0.013,0.25355 0.02,0.38029 0.01,0.16436 0.01,0.32895 0,0.49331 -0.01,0.19905 -0.01,0.39836 -0.018,0.59722 -0.01,0.23223 -0.013,0.46464 -0.025,0.69675 -0.01,0.26692 -0.019,0.53385 -0.019,0.80095 0,0.22876 0,0.45752 0,0.68625 0,0 0.2587,-0.13184 0.2587,-0.13184 z" />
      <path
         style="fill:#000000;fill-opacity:1;stroke:none;stroke-width:1;stroke-opacity:0.417309"
         id="path3652"
         d="m 92.736826,81.94321 c -0.1581,-0.0433 -0.2943,-0.12308 -0.4177,-0.22897 -0.093,-0.0804 -0.1695,-0.17552 -0.2272,-0.28379 -0.049,-0.10332 -0.054,-0.21447 -0.038,-0.32578 0.031,-0.13452 0.099,-0.24747 0.1987,-0.34121 0.1284,-0.0881 0.4016,-0.26932 -0.197,0.10676 -0.021,0.0132 0.045,-0.0214 0.069,-0.0305 0.069,-0.0266 0.077,-0.0249 0.1512,-0.0394 0.1871,-0.0236 0.3694,0.0183 0.545,0.0794 0.1459,0.0537 0.2841,0.12462 0.4051,0.22243 0.097,0.0831 0.1306,0.17172 0.1394,0.29575 0,0.15135 -0.046,0.29234 -0.1159,0.42506 -0.088,0.1516 -0.2167,0.27159 -0.3602,0.36949 -0.3025,0.17812 0.5794,-0.34502 0.2044,-0.12433 -0.072,0.0424 -0.1433,0.0863 -0.215,0.12949 0,0 -0.01,0.006 -0.01,0.006 v 0 c -0.03,0.0366 -0.067,0.0684 -0.09,0.10965 0,0.007 0.016,0.013 0.024,0.009 0.3309,-0.17177 0.3501,-0.18597 0.5429,-0.31088 0.1407,-0.10705 0.2673,-0.23249 0.3498,-0.39095 0.067,-0.14126 0.1141,-0.2893 0.097,-0.44765 -0.023,-0.12941 -0.079,-0.22807 -0.1778,-0.31578 -0.1271,-0.0998 -0.2699,-0.17314 -0.4211,-0.23021 -0.1801,-0.064 -0.367,-0.11137 -0.56,-0.0962 -0.028,0.004 -0.056,0.005 -0.084,0.0109 -0.029,0.006 -0.1171,0.0325 -0.1438,0.047 -0.1926,0.10478 -0.4013,0.20188 -0.5696,0.34759 -0.097,0.10546 -0.1655,0.22714 -0.1908,0.36965 -0.014,0.12115 -0.01,0.24241 0.044,0.35446 0.061,0.11417 0.1426,0.21278 0.2414,0.29638 0.1371,0.10833 0.2856,0.19172 0.4597,0.22355 0,0 0.3451,-0.23701 0.3451,-0.23701 z" />
      <path
         style="fill:#000000;fill-opacity:1;stroke:none;stroke-width:1;stroke-opacity:0.417309"
         id="path3654"
         d="m 91.344826,78.66558 c -0.031,0.24355 -0.066,0.48651 -0.099,0.7298 -0.014,0.14134 -0.05,0.28276 -0.043,0.4254 0.023,0.12361 0.1443,0.13739 0.2492,0.15517 0.1972,0.0265 0.3959,0.0386 0.5942,0.0547 0.1924,0.0154 0.3825,0.049 0.572,0.0849 0.084,0.0159 0.1669,0.0333 0.2501,0.0511 0.053,0.014 0.1037,0 0.1548,-0.0138 0.206,-0.0783 0.414,-0.17819 0.5761,-0.32845 0.074,-0.0823 0.084,-0.19574 0.096,-0.30088 0.016,-0.18617 0.01,-0.37323 0,-0.55941 -0.013,-0.13235 0,-0.26874 -0.031,-0.39931 -0.073,-0.0608 -0.1269,-0.0214 -0.2145,0.006 0,0 -0.01,0.005 -0.01,0.005 v 0 c -0.089,0.065 -0.1613,0.10591 -0.2008,0.20997 0,0.13287 0.027,0.26442 0.034,0.39695 0.011,0.18352 0.019,0.3682 0,0.55142 -0.014,0.0962 -0.027,0.19997 -0.1058,0.26683 -0.1245,0.0927 -0.3488,0.2063 0.3153,-0.1751 0.067,-0.0382 -0.1494,0.0907 -0.093,0.0463 -0.046,0.0167 -0.095,0.0373 -0.145,0.034 -0.087,-0.0122 -0.1733,-0.029 -0.2598,-0.0439 -0.1924,-0.0343 -0.3852,-0.0679 -0.5801,-0.0845 -0.1964,-0.0169 -0.3935,-0.0285 -0.5891,-0.0542 -0.051,-0.008 -0.1551,-0.0132 -0.1953,-0.0524 -0.017,-0.0167 -0.017,-0.0291 -0.022,-0.0516 -0.01,-0.13862 0.027,-0.27601 0.037,-0.41389 0.027,-0.24016 0.047,-0.48104 0.082,-0.72027 0,0 -0.367,0.1806 -0.367,0.1806 z" />
      <path
         style="fill:#000000;fill-opacity:1;stroke:none;stroke-width:1;stroke-opacity:0.417309"
         id="path3794"
         d="m 91.652926,78.94315 c 0.1594,-0.19081 0.3421,-0.36052 0.5235,-0.5299 0.036,-0.0339 0.1102,-0.10134 0.1485,-0.14021 0.013,-0.0127 0.027,-0.0241 0.036,-0.0393 0,-0.004 0,-0.008 0,-0.0127 0.01,-0.005 0.012,-0.009 0.018,-0.0132 0,0 0,0.003 0,0.003 v 0 c -0.037,0.0201 -0.1044,0.0564 -0.1315,0.0738 -0.091,0.0588 -0.1696,0.13523 -0.25,0.20722 -0.1064,0.10041 -0.2125,0.20108 -0.3147,0.30583 -0.057,0.058 -0.1085,0.11237 -0.1599,0.17433 -0.014,0.0161 -0.025,0.0333 -0.038,0.0499 0,0 0.1778,-0.0775 0.1778,-0.0775 z" />
      <path
         style="fill:#000000;fill-opacity:1;stroke:none;stroke-width:1;stroke-opacity:0.417309"
         id="path3796"
         d="m 91.632626,79.54974 c 0.1597,-0.22712 0.3491,-0.43119 0.5374,-0.63453 0.068,-0.0911 0.1646,-0.15803 0.2344,-0.24786 0.1661,-0.21386 -0.131,0.0996 0.091,-0.12538 0,0 0,0.003 0,0.003 v 0 c -0.1384,0.11459 -0.056,0.0496 -0.2495,0.19082 -0.07,0.0582 -0.2059,0.19979 -0.2674,0.26247 -0.1188,0.12845 -0.158,0.16893 -0.272,0.30024 -0.082,0.0942 -0.1646,0.19016 -0.2332,0.29467 -0.01,0.0138 -0.017,0.0287 -0.025,0.043 0,0 0.1883,-0.0852 0.1883,-0.0852 z" />
      <path
         style="fill:#000000;fill-opacity:1;stroke:none;stroke-width:1;stroke-opacity:0.417309"
         id="path3798"
         d="m 92.045326,79.6584 c 0.2028,-0.23971 0.4206,-0.46635 0.6388,-0.69194 0.1609,-0.16303 0.1141,-0.11678 0.2757,-0.27577 0.042,-0.0415 0.085,-0.0817 0.1267,-0.12409 0.03,-0.0306 0.057,-0.0634 0.086,-0.095 0.062,-0.0688 0.045,-0.0496 0.095,-0.1019 0,0 0,0.003 0,0.003 v 0 c -0.1193,0.0827 -0.2365,0.16981 -0.3462,0.26506 -0.1455,0.12642 -0.276,0.26913 -0.4124,0.40487 -0.2173,0.22606 -0.4343,0.45294 -0.6366,0.69267 0,0 0.1777,-0.0756 0.1777,-0.0756 z" />
      <path
         style="fill:#000000;fill-opacity:1;stroke:none;stroke-width:1;stroke-opacity:0.417309"
         id="path3800"
         d="m 92.465426,79.78352 c 0.1949,-0.21132 0.3946,-0.4182 0.5915,-0.6277 0.1557,-0.17012 0.043,-0.0384 0.1481,-0.17737 0.037,-0.0486 0.041,-0.0519 0.079,-0.0916 0,0 0,0.003 0,0.003 v 0 c -0.092,0.0654 -0.072,0.0487 -0.1707,0.12978 -0.1477,0.12141 -0.098,0.0782 -0.2314,0.21246 -0.1974,0.2065 -0.3957,0.41254 -0.5855,0.626 0,0 0.1736,-0.0733 0.1736,-0.0733 z" />
      <path
         style="fill:#000000;fill-opacity:1;stroke:none;stroke-width:1;stroke-opacity:0.417309"
         id="path3802"
         d="m 92.814226,79.90383 c 0.1061,-0.10451 0.1996,-0.22074 0.2955,-0.33436 0.1096,-0.12985 0.044,-0.0444 0.1276,-0.15859 0,-0.0106 -0.01,-0.0214 -0.012,-0.0321 0,0 0,0.003 0,0.003 v 0 c -0.041,0.0298 -0.083,0.0597 -0.1242,0.0895 -0.1342,0.12872 -0.046,0.0404 -0.1743,0.17838 -0.086,0.0926 -0.1745,0.18402 -0.2544,0.2822 -0.013,0.0167 -0.025,0.0347 -0.038,0.052 0,0 0.1842,-0.0788 0.1842,-0.0788 z" />
    </g>
  </g>
</svg>
